<svg xmlns="http://www.w3.org/2000/svg" direction="ltr" width="130.67908943564237" height="146.09945967352843" viewBox="920.7924547249751 100.84156439885544 130.67908943564237 146.09945967352843" stroke-linecap="round" stroke-linejoin="round" data-color-mode="light" class="tl-container tl-theme__force-sRGB tl-theme__light" style="background-color: transparent;"><defs/><g transform="matrix(1, 0, 0, 1, 952.8355, 132.8416)" opacity="1"><path stroke-width="3.5" d="M 0 7.7783 C 0 3.4824 14.8993 0 33.2785 0 C 51.6577 0 66.557 3.4824 66.557 7.7783 C 66.557 12.0741 51.6577 15.5565 33.2785 15.5565 C 14.8993 15.5565 0 12.0741 0 7.7783" fill="none" stroke="#1d1d1d"/></g><g transform="matrix(1, 0, 0, 1, 1019.3425, 140.474)" opacity="1"><path stroke-width="3.5" d="M 0 0 C 0 0 0.129 64.431 0.129 64.431" transform="scale(1)" stroke="#1d1d1d" fill="none"/></g><g transform="matrix(1, 0, 0, 1, 952.9116, 140.9323)" opacity="1"><path stroke-width="3.5" d="M 0 0 C 0 0 -0.1191 64.1339 -0.1191 64.1339" transform="scale(1)" stroke="#1d1d1d" fill="none"/></g><g transform="matrix(1, 0, 0, 1, 964.2895, 218.4329)" opacity="1"><path stroke-width="3.5" d="M -11.4164 -13.4824 C -12.4146 -14.1181 -10.365 -9.1317 -3.4888 -7.0515 C 3.9395 -5.3605 11.0292 -4.3943 21.1432 -4.5224 C 31.253 -2.5089 38.6088 -3.7937 45.6064 -5.914 C 53.0544 -9.151 55.1776 -13.6749 55.1776 -13.6749 M -11.4164 -13.4824 C -12.5774 -14.3648 -10.5278 -9.3784 -3.6516 -7.2982 C 4.4906 -3.432 11.5803 -2.4657 21.6944 -2.5938 C 31.8227 -3.7955 39.1785 -5.0803 46.1761 -7.2006 C 53.0544 -9.151 55.1776 -13.6749 55.1776 -13.6749" transform="scale(1)" stroke="#1d1d1d" fill="none"/></g></svg>