<svg xmlns="http://www.w3.org/2000/svg" direction="ltr" width="487.7096308329561" height="429.09385983273665" viewBox="223.24644565351835 -421.58438326504574 487.7096308329561 429.09385983273665" stroke-linecap="round" stroke-linejoin="round" data-color-mode="light" class="tl-container tl-theme__force-sRGB tl-theme__light" style="background-color: transparent;"><defs/><g transform="matrix(1, 0, 0, 1, 421.2706, -379.7969)" opacity="1"><path stroke-width="3.5" d="M 0.3734 40.7142 C -0.6447 17.8761 18.9711 0.0665 43.1683 0.0665 C 67.8509 1.0283 87.4666 18.8379 87.4666 40.8072 C 87.466 61.0743 67.8502 78.8839 43.653 78.8839 C 19.9892 80.4931 0.3734 62.6835 0.3734 40.7142 M 0.9404 40.6389 C -0.7689 18.1208 18.8468 0.3112 43.0441 0.3112 C 68.3935 -0.9071 88.0092 16.9025 88.0092 38.8717 C 88.045 62.0561 68.4292 79.8657 44.232 79.8657 C 20.5562 80.4178 0.9404 62.6082 0.9404 40.6389" fill="none" stroke="#9fa8b2"/></g><g transform="matrix(1, 0, 0, 1, 440.8816, -375.7516)" opacity="1"><path stroke-width="3.5" d="M 0 0 L 17.5463 -13.8328 M 0 0 L 17.5463 -13.8328" transform="scale(1)" stroke="#9fa8b2" fill="none"/></g><g transform="matrix(1, 0, 0, 1, 439.4914, -375.5719)" opacity="1"><path stroke-width="3.5" d="M 0 0 L 18.098 7.985 M 0 0 L 18.098 7.985" transform="scale(1)" stroke="#9fa8b2" fill="none"/></g><g transform="matrix(1, 0, 0, 1, 574.1945, -387.928)" opacity="1"><path stroke-width="3.5" d="M -0.6382 47.2313 C 0.0035 20.8177 22.1377 -0.4927 49.4416 -0.4927 C 75.9923 -0.9825 98.1264 20.3279 98.1264 46.6157 C 97.7276 73.4416 75.5934 94.752 48.2895 94.752 C 21.496 94.8295 -0.6382 73.519 -0.6382 47.2313 M -0.0895 47.4478 C 0.1688 21.1338 22.303 -0.1766 49.6069 -0.1766 C 77.7016 1.0993 99.8357 22.4098 99.8357 48.6975 C 99.4821 74.6963 77.3479 96.0067 50.044 96.0067 C 22.0447 95.046 -0.0895 73.7356 -0.0895 47.4478" fill="none" stroke="#9fa8b2"/></g><g transform="matrix(1, 0, 0, 1, 571.6382, -292.6369)" opacity="1"><path stroke-width="3.5" d="M 0 0 L 107.3179 -0.3608 M 0 0 L 107.3179 -0.3608" transform="scale(1)" stroke="#9fa8b2" fill="none"/></g><g transform="matrix(1, 0, 0, 1, 281.1805, -377.4409)" opacity="1"><path stroke-width="3.5" d="M 0.5249 39.1304 C -1.0211 17.691 18.5946 -0.1186 42.7919 -0.1186 C 69.1453 0.2771 88.7611 18.0867 88.7611 40.056 C 87.9955 62.2314 68.3797 80.041 44.1824 80.041 C 20.1407 78.9093 0.5249 61.0997 0.5249 39.1304 M 1.0779 38.6131 C -0.9018 17.4412 18.714 -0.3684 42.9113 -0.3684 C 67.354 -0.1202 86.9698 17.6894 86.9698 39.6586 C 87.4351 60.8992 67.8194 78.7088 43.6221 78.7088 C 20.6937 78.3919 1.0779 60.5823 1.0779 38.6131" fill="none" stroke="#9fa8b2"/></g><g transform="matrix(1, 0, 0, 1, 269.8232, -384.9054)" opacity="1"><path stroke-width="3.5" d="M 0 0 L 2.8347 98.213 M 0 0 L 2.8347 98.213" transform="scale(1)" stroke="#9fa8b2" fill="none"/></g><g transform="matrix(1, 0, 0, 1, 271.6233, -338.3338)" opacity="1"><path stroke-width="3.5" d="M 0 0 L 10.2878 -0.1213 M 0 0 L 10.2878 -0.1213" transform="scale(1)" stroke="#9fa8b2" fill="none"/></g><g transform="matrix(1, 0, 0, 1, 275.0578, -136.2256)" opacity="1"><path stroke-width="3.5" d="M 0 14.4813 C 0 6.4835 7.572 0 16.9126 0 C 26.2532 0 33.8252 6.4835 33.8252 14.4813 C 33.8252 22.4791 26.2532 28.9626 16.9126 28.9626 C 7.572 28.9626 0 22.4791 0 14.4813" fill="none" stroke="#9fa8b2"/></g><g transform="matrix(1, 0, 0, 1, 292.41, -107.5696)" opacity="1"><path stroke-width="3.5" d="M 0 0 C 0 0 1.7718 57.8364 1.7718 57.8364" transform="scale(1)" stroke="#9fa8b2" fill="none"/></g><g transform="matrix(1, 0, 0, 1, 259.8048, -88.3061)" opacity="1"><path stroke-width="3.5" d="M 0 0 C 0 0 67.0113 -1.0489 67.0113 -1.0489" transform="scale(1)" stroke="#9fa8b2" fill="none"/></g><g transform="matrix(1, 0, 0, 1, 265.8098, -24.4905)" opacity="1"><path stroke-width="3.5" d="M 0 0 C 0 0 27.0367 -25.2555 27.0367 -25.2555" transform="scale(1)" stroke="#9fa8b2" fill="none"/></g><g transform="matrix(1, 0, 0, 1, 294.4812, -50.0871)" opacity="1"><path stroke-width="3.5" d="M 0 0 C 0 0 24.7073 23.3024 24.7073 23.3024" transform="scale(1)" stroke="#9fa8b2" fill="none"/></g><g transform="matrix(1, 0, 0, 1, 401.5604, -54.6075)" opacity="1"><path stroke-width="3.5" d="M 0 0 C 0 0 0.5912 -19.9323 5.5182 -29.0725 C 10.4451 -38.2127 16.0947 -43.2123 23.6493 -43.873 C 31.204 -44.5337 36.4429 -40.7553 41.7805 -32.244 C 47.118 -23.7327 57.9737 -9.7363 49.2694 -3.0188 C 40.5652 3.6987 0 0 0 0" transform="scale(1)" stroke="#9fa8b2" fill="none"/></g><g transform="matrix(1, 0, 0, 1, 414.0142, -121.2985)" opacity="1"><path stroke-width="3.5" d="M 0 11.0364 C 0 4.9411 5.647 0 12.613 0 C 19.5789 0 25.2259 4.9411 25.2259 11.0364 C 25.2259 17.1316 19.5789 22.0727 12.613 22.0727 C 5.647 22.0727 0 17.1316 0 11.0364" fill="none" stroke="#9fa8b2"/></g><g transform="matrix(0, 1, -1, 0, 352.2676, -222.7566)" opacity="1"><path stroke-width="3.5" d="M 0 9.192 C 0 4.1154 8.5209 0 19.0321 0 C 29.5432 0 38.0641 4.1154 38.0641 9.192 C 38.0641 14.2685 29.5432 18.3839 19.0321 18.3839 C 8.5209 18.3839 0 14.2685 0 9.192" fill="none" stroke="#9fa8b2"/></g><g transform="matrix(0, 1, -1, 0, 343.2479, -184.721)" opacity="1"><path stroke-width="3.5" d="M 0 0 C 0 0 0.0738 76.1414 0.0738 76.1414" transform="scale(1)" stroke="#9fa8b2" fill="none"/></g><g transform="matrix(0, 1, -1, 0, 342.7063, -222.713)" opacity="1"><path stroke-width="3.5" d="M 0 0 C 0 0 -0.0681 75.7903 -0.0681 75.7903" transform="scale(1)" stroke="#9fa8b2" fill="none"/></g><g transform="matrix(0, 1, -1, 0, 251.1199, -216.206)" opacity="1"><path stroke-width="3.5" d="M -6.529 -15.9329 C -6.6838 -16.486 -5.5116 -10.5934 -1.5791 -8.1351 C 2.5002 -5.3116 6.5548 -4.1697 12.3391 -4.3211 C 18.5736 -5.3683 22.7804 -6.8867 26.7823 -9.3924 C 30.3419 -10.8142 31.5562 -16.1603 31.5562 -16.1603 M -6.529 -15.9329 C -6.5484 -16.1687 -5.3762 -10.276 -1.4437 -7.8177 C 3.0513 -5.0527 7.1059 -3.9108 12.8902 -4.0622 C 18.0128 -4.0037 22.2197 -5.522 26.2216 -8.0277 C 30.3419 -10.8142 31.5562 -16.1603 31.5562 -16.1603" transform="scale(1)" stroke="#9fa8b2" fill="none"/></g><g transform="matrix(1, 0, 0, 1, 431.6536, -244.4328)" opacity="1"><path stroke-width="3.5" d="M 0 7.7783 C 0 3.4824 14.8993 0 33.2785 0 C 51.6577 0 66.557 3.4824 66.557 7.7783 C 66.557 12.0741 51.6577 15.5565 33.2785 15.5565 C 14.8993 15.5565 0 12.0741 0 7.7783" fill="none" stroke="#9fa8b2"/></g><g transform="matrix(1, 0, 0, 1, 498.1606, -236.8004)" opacity="1"><path stroke-width="3.5" d="M 0 0 C 0 0 0.129 64.431 0.129 64.431" transform="scale(1)" stroke="#9fa8b2" fill="none"/></g><g transform="matrix(1, 0, 0, 1, 431.7297, -236.3421)" opacity="1"><path stroke-width="3.5" d="M 0 0 C 0 0 -0.1191 64.1339 -0.1191 64.1339" transform="scale(1)" stroke="#9fa8b2" fill="none"/></g><g transform="matrix(1, 0, 0, 1, 443.1075, -158.8415)" opacity="1"><path stroke-width="3.5" d="M -11.4164 -13.4824 C -12.4146 -14.1181 -10.365 -9.1317 -3.4888 -7.0515 C 3.9395 -5.3605 11.0292 -4.3943 21.1432 -4.5224 C 31.253 -2.5089 38.6088 -3.7937 45.6064 -5.914 C 53.0544 -9.151 55.1776 -13.6749 55.1776 -13.6749 M -11.4164 -13.4824 C -12.5774 -14.3648 -10.5278 -9.3784 -3.6516 -7.2982 C 4.4906 -3.432 11.5803 -2.4657 21.6944 -2.5938 C 31.8227 -3.7955 39.1785 -5.0803 46.1761 -7.2006 C 53.0544 -9.151 55.1776 -13.6749 55.1776 -13.6749" transform="scale(1)" stroke="#9fa8b2" fill="none"/></g></svg>