<svg xmlns="http://www.w3.org/2000/svg" direction="ltr" width="623.6191660767179" height="422.67676202314954" viewBox="223.24644565351835 -429.34755275700894 623.6191660767179 422.67676202314954" stroke-linecap="round" stroke-linejoin="round" data-color-mode="light" class="tl-container tl-theme__force-sRGB tl-theme__light" style="background-color: transparent;"><defs/><g transform="matrix(1, 0, 0, 1, 421.2706, -379.7969)" opacity="1"><path stroke-width="3.5" d="M 0.3734 40.7142 C -0.6447 17.8761 18.9711 0.0665 43.1683 0.0665 C 67.8509 1.0283 87.4666 18.8379 87.4666 40.8072 C 87.466 61.0743 67.8502 78.8839 43.653 78.8839 C 19.9892 80.4931 0.3734 62.6835 0.3734 40.7142 M 0.9404 40.6389 C -0.7689 18.1208 18.8468 0.3112 43.0441 0.3112 C 68.3935 -0.9071 88.0092 16.9025 88.0092 38.8717 C 88.045 62.0561 68.4292 79.8657 44.232 79.8657 C 20.5562 80.4178 0.9404 62.6082 0.9404 40.6389" fill="none" stroke="#1d1d1d"/></g><g transform="matrix(1, 0, 0, 1, 440.8816, -375.7516)" opacity="1"><path stroke-width="3.5" d="M 0 0 L 17.5463 -13.8328 M 0 0 L 17.5463 -13.8328" transform="scale(1)" stroke="#1d1d1d" fill="none"/></g><g transform="matrix(1, 0, 0, 1, 439.4914, -375.5719)" opacity="1"><path stroke-width="3.5" d="M 0 0 L 18.098 7.985 M 0 0 L 18.098 7.985" transform="scale(1)" stroke="#1d1d1d" fill="none"/></g><g transform="matrix(1, 0, 0, 1, 574.1945, -387.928)" opacity="1"><path stroke-width="3.5" d="M -0.6382 47.2313 C 0.0035 20.8177 22.1377 -0.4927 49.4416 -0.4927 C 75.9923 -0.9825 98.1264 20.3279 98.1264 46.6157 C 97.7276 73.4416 75.5934 94.752 48.2895 94.752 C 21.496 94.8295 -0.6382 73.519 -0.6382 47.2313 M -0.0895 47.4478 C 0.1688 21.1338 22.303 -0.1766 49.6069 -0.1766 C 77.7016 1.0993 99.8357 22.4098 99.8357 48.6975 C 99.4821 74.6963 77.3479 96.0067 50.044 96.0067 C 22.0447 95.046 -0.0895 73.7356 -0.0895 47.4478" fill="none" stroke="#1d1d1d"/></g><g transform="matrix(1, 0, 0, 1, 571.6382, -292.6369)" opacity="1"><path stroke-width="3.5" d="M 0 0 L 107.3179 -0.3608 M 0 0 L 107.3179 -0.3608" transform="scale(1)" stroke="#1d1d1d" fill="none"/></g><g transform="matrix(1, 0, 0, 1, 281.1805, -377.4409)" opacity="1"><path stroke-width="3.5" d="M 0.5249 39.1304 C -1.0211 17.691 18.5946 -0.1186 42.7919 -0.1186 C 69.1453 0.2771 88.7611 18.0867 88.7611 40.056 C 87.9955 62.2314 68.3797 80.041 44.1824 80.041 C 20.1407 78.9093 0.5249 61.0997 0.5249 39.1304 M 1.0779 38.6131 C -0.9018 17.4412 18.714 -0.3684 42.9113 -0.3684 C 67.354 -0.1202 86.9698 17.6894 86.9698 39.6586 C 87.4351 60.8992 67.8194 78.7088 43.6221 78.7088 C 20.6937 78.3919 1.0779 60.5823 1.0779 38.6131" fill="none" stroke="#1d1d1d"/></g><g transform="matrix(1, 0, 0, 1, 269.8232, -384.9054)" opacity="1"><path stroke-width="3.5" d="M 0 0 L 2.8347 98.213 M 0 0 L 2.8347 98.213" transform="scale(1)" stroke="#1d1d1d" fill="none"/></g><g transform="matrix(1, 0, 0, 1, 271.6233, -338.3338)" opacity="1"><path stroke-width="3.5" d="M 0 0 L 10.2878 -0.1213 M 0 0 L 10.2878 -0.1213" transform="scale(1)" stroke="#1d1d1d" fill="none"/></g><g transform="matrix(1, 0, 0, 1, 746.4484, -397.3476)" opacity="1"><path stroke-width="3.5" d="M 0 14.4813 C 0 6.4835 7.572 0 16.9126 0 C 26.2532 0 33.8252 6.4835 33.8252 14.4813 C 33.8252 22.4791 26.2532 28.9626 16.9126 28.9626 C 7.572 28.9626 0 22.4791 0 14.4813" fill="none" stroke="#1d1d1d"/></g><g transform="matrix(1, 0, 0, 1, 763.8006, -368.6916)" opacity="1"><path stroke-width="3.5" d="M 0 0 C 0 0 1.7718 57.8364 1.7718 57.8364" transform="scale(1)" stroke="#1d1d1d" fill="none"/></g><g transform="matrix(1, 0, 0, 1, 731.1953, -349.428)" opacity="1"><path stroke-width="3.5" d="M 0 0 C 0 0 67.0113 -1.0489 67.0113 -1.0489" transform="scale(1)" stroke="#1d1d1d" fill="none"/></g><g transform="matrix(1, 0, 0, 1, 737.2004, -285.6124)" opacity="1"><path stroke-width="3.5" d="M 0 0 C 0 0 27.0367 -25.2555 27.0367 -25.2555" transform="scale(1)" stroke="#1d1d1d" fill="none"/></g><g transform="matrix(1, 0, 0, 1, 765.8718, -311.2091)" opacity="1"><path stroke-width="3.5" d="M 0 0 C 0 0 24.7073 23.3024 24.7073 23.3024" transform="scale(1)" stroke="#1d1d1d" fill="none"/></g><g transform="matrix(1, 0, 0, 1, 762.3664, -173.9228)" opacity="1"><path stroke-width="3.5" d="M 0 0 C 0 0 0.5912 -19.9323 5.5182 -29.0725 C 10.4451 -38.2127 16.0947 -43.2123 23.6493 -43.873 C 31.204 -44.5337 36.4429 -40.7553 41.7805 -32.244 C 47.118 -23.7327 57.9737 -9.7363 49.2694 -3.0188 C 40.5652 3.6987 0 0 0 0" transform="scale(1)" stroke="#1d1d1d" fill="none"/></g><g transform="matrix(1, 0, 0, 1, 774.8203, -240.6139)" opacity="1"><path stroke-width="3.5" d="M 0 11.0364 C 0 4.9411 5.647 0 12.613 0 C 19.5789 0 25.2259 4.9411 25.2259 11.0364 C 25.2259 17.1316 19.5789 22.0727 12.613 22.0727 C 5.647 22.0727 0 17.1316 0 11.0364" fill="none" stroke="#1d1d1d"/></g><g transform="matrix(0, 1, -1, 0, 352.2676, -222.7566)" opacity="1"><path stroke-width="3.5" d="M 0 9.192 C 0 4.1154 8.5209 0 19.0321 0 C 29.5432 0 38.0641 4.1154 38.0641 9.192 C 38.0641 14.2685 29.5432 18.3839 19.0321 18.3839 C 8.5209 18.3839 0 14.2685 0 9.192" fill="none" stroke="#1d1d1d"/></g><g transform="matrix(0, 1, -1, 0, 343.2479, -184.721)" opacity="1"><path stroke-width="3.5" d="M 0 0 C 0 0 0.0738 76.1414 0.0738 76.1414" transform="scale(1)" stroke="#1d1d1d" fill="none"/></g><g transform="matrix(0, 1, -1, 0, 342.7063, -222.713)" opacity="1"><path stroke-width="3.5" d="M 0 0 C 0 0 -0.0681 75.7903 -0.0681 75.7903" transform="scale(1)" stroke="#1d1d1d" fill="none"/></g><g transform="matrix(0, 1, -1, 0, 251.1199, -216.206)" opacity="1"><path stroke-width="3.5" d="M -6.529 -15.9329 C -6.6838 -16.486 -5.5116 -10.5934 -1.5791 -8.1351 C 2.5002 -5.3116 6.5548 -4.1697 12.3391 -4.3211 C 18.5736 -5.3683 22.7804 -6.8867 26.7823 -9.3924 C 30.3419 -10.8142 31.5562 -16.1603 31.5562 -16.1603 M -6.529 -15.9329 C -6.5484 -16.1687 -5.3762 -10.276 -1.4437 -7.8177 C 3.0513 -5.0527 7.1059 -3.9108 12.8902 -4.0622 C 18.0128 -4.0037 22.2197 -5.522 26.2216 -8.0277 C 30.3419 -10.8142 31.5562 -16.1603 31.5562 -16.1603" transform="scale(1)" stroke="#1d1d1d" fill="none"/></g><g transform="matrix(1, 0, 0, 1, 407.8456, -244.3272)" opacity="1"><path stroke-width="3.5" d="M 0 7.7783 C 0 3.4824 14.8993 0 33.2785 0 C 51.6577 0 66.557 3.4824 66.557 7.7783 C 66.557 12.0741 51.6577 15.5565 33.2785 15.5565 C 14.8993 15.5565 0 12.0741 0 7.7783" fill="none" stroke="#1d1d1d"/></g><g transform="matrix(1, 0, 0, 1, 474.3526, -236.6947)" opacity="1"><path stroke-width="3.5" d="M 0 0 C 0 0 0.129 64.431 0.129 64.431" transform="scale(1)" stroke="#1d1d1d" fill="none"/></g><g transform="matrix(1, 0, 0, 1, 407.9217, -236.2364)" opacity="1"><path stroke-width="3.5" d="M 0 0 C 0 0 -0.1191 64.1339 -0.1191 64.1339" transform="scale(1)" stroke="#1d1d1d" fill="none"/></g><g transform="matrix(1, 0, 0, 1, 419.2996, -158.7358)" opacity="1"><path stroke-width="3.5" d="M -11.4164 -13.4824 C -12.4146 -14.1181 -10.365 -9.1317 -3.4888 -7.0515 C 3.9395 -5.3605 11.0292 -4.3943 21.1432 -4.5224 C 31.253 -2.5089 38.6088 -3.7937 45.6064 -5.914 C 53.0544 -9.151 55.1776 -13.6749 55.1776 -13.6749 M -11.4164 -13.4824 C -12.5774 -14.3648 -10.5278 -9.3784 -3.6516 -7.2982 C 4.4906 -3.432 11.5803 -2.4657 21.6944 -2.5938 C 31.8227 -3.7955 39.1785 -5.0803 46.1761 -7.2006 C 53.0544 -9.151 55.1776 -13.6749 55.1776 -13.6749" transform="scale(1)" stroke="#1d1d1d" fill="none"/></g><g transform="matrix(1, 0, 0, 1, 545.8508, -243.508)" opacity="1"><path stroke-width="3.5" d="M 0 0 L 47.1423 0 L 47.1423 84.098 L 0 84.098 Z" fill="none" stroke="#1d1d1d"/></g><g transform="matrix(1, 0, 0, 1, 551.5235, -234.2046)" opacity="1"><path stroke-width="3.5" d="M 0 0 C 0 0 36.1424 0 36.1424 0" transform="scale(1)" stroke="#1d1d1d" fill="none"/></g><g transform="matrix(1, 0, 0, 1, 551.3507, -226.4632)" opacity="1"><path stroke-width="3.5" d="M 0 0 C 0 0 36.1424 0 36.1424 0" transform="scale(1)" stroke="#1d1d1d" fill="none"/></g><g transform="matrix(1, 0, 0, 1, 551.3117, -218.7219)" opacity="1"><path stroke-width="3.5" d="M 0 0 C 0 0 36.1424 0 36.1424 0" transform="scale(1)" stroke="#1d1d1d" fill="none"/></g><g transform="matrix(1, 0, 0, 1, 551.3117, -210.9806)" opacity="1"><path stroke-width="3.5" d="M 0 0 C 0 0 36.1424 0 36.1424 0" transform="scale(1)" stroke="#1d1d1d" fill="none"/></g><g transform="matrix(1, 0, 0, 1, 264.4288, -102.5818)" opacity="1"><path fill="#e8e8e8" d="M 0 25.9413 C 0 11.6143 11.6143 0 25.9413 0 C 40.2682 0 51.8825 11.6143 51.8825 25.9413 C 51.8825 40.2682 40.2682 51.8825 25.9413 51.8825 C 11.6143 51.8825 0 40.2682 0 25.9413"/><path stroke-width="2" d="M 0 25.9413 C 0 11.6143 11.6143 0 25.9413 0 C 40.2682 0 51.8825 11.6143 51.8825 25.9413 C 51.8825 40.2682 40.2682 51.8825 25.9413 51.8825 C 11.6143 51.8825 0 40.2682 0 25.9413" fill="none" stroke="#1d1d1d"/></g><g transform="matrix(1, 0, 0, 1, 280.1765, -92.1738)" opacity="1"><path stroke-width="2" d="M 0 0 C 0 0 1.6427 0.3229 2.5224 0.8877 C 3.402 1.4524 3.3855 2.4897 4.2223 2.7109 C 5.059 2.9321 4.7095 2.0898 6.5388 1.9495 C 8.368 1.8092 11.236 1.9777 13.0027 2.0374 C 14.7694 2.0972 14.274 2.4538 15.0189 2.2364 C 15.7638 2.0191 15.8022 1.5662 16.5783 0.9941 C 17.3544 0.4221 18.1692 -0.6269 18.7442 -0.5093 C 19.3192 -0.3916 19.2259 0.7098 19.3383 1.5589 C 19.4506 2.408 18.8817 2.7523 19.2834 3.5666 C 19.6852 4.3808 20.6688 3.9377 21.2666 5.4675 C 21.8645 6.9973 22.1131 8.5883 22.1531 10.9094 C 22.1931 13.2305 22.024 14.96 21.4585 16.6087 C 20.8931 18.2574 20.4327 18.1146 19.4388 18.8231 C 18.4449 19.5315 17.8798 19.6256 16.6879 20.0093 C 15.4961 20.3929 14.1728 20.3742 13.7177 20.6646 C 13.2627 20.955 14.1553 20.9081 14.5037 21.4031 C 14.8521 21.898 15.1674 21.6294 15.3902 23.0404 C 15.613 24.4515 15.5425 26.4585 15.573 28.1762 C 15.6034 29.894 15.7459 30.5258 15.5364 31.2857 C 15.327 32.0456 16.296 31.6858 14.5677 31.8239 C 12.8393 31.9619 8.9578 32.1092 7.2404 31.9482 C 5.523 31.7873 6.5684 32.0003 6.3242 31.0513 C 6.0801 30.1023 6.4739 28.0572 6.0683 27.393 C 5.6628 26.7287 5.3125 27.7277 4.3776 27.8629 C 3.4428 27.9981 2.7082 28.317 1.5811 28.042 C 0.4539 27.7669 -0.1493 27.4004 -1.0327 26.5426 C -1.9162 25.6848 -1.9912 24.8055 -2.6595 23.9244 C -3.3278 23.0432 -3.5551 22.885 -4.2405 22.3131 C -4.926 21.7412 -6.0771 21.3689 -5.9495 21.1793 C -5.822 20.9897 -4.4545 21.0923 -3.6282 21.4031 C -2.8019 21.7139 -2.7143 22.0387 -1.9832 22.6712 C -1.2521 23.3037 -0.9794 23.8408 -0.1188 24.4391 C 0.7418 25.0374 1.1519 25.3783 2.1477 25.5431 C 3.1435 25.7078 3.8784 25.4986 4.6609 25.2298 C 5.4435 24.9609 5.6201 24.7763 5.9038 24.2526 C 6.1875 23.7289 5.8589 23.3142 6.0226 22.7159 C 6.1864 22.1176 6.3699 21.7848 6.6898 21.3807 C 7.0097 20.9767 8.0607 21.078 7.558 20.7765 C 7.0554 20.475 5.6137 20.3245 4.2771 19.9336 C 2.9405 19.5426 2.1286 19.6003 1.1424 18.8998 C 0.1561 18.1994 0.1257 18.2249 -0.457 16.5714 C -1.0396 14.9179 -1.6028 13.2308 -1.6542 10.963 C -1.7056 8.6953 -1.1873 7.0867 -0.7037 5.6861 C -0.2201 4.2855 0.5453 4.9502 0.6672 4.2401 C 0.789 3.5299 0.0202 3.1606 -0.1188 2.2773 C -0.2578 1.3939 0 0 0 0" transform="scale(1)" stroke="#1d1d1d" fill="none"/></g><g transform="matrix(1, 0, 0, 1, 360.265, -78.2779)" opacity="1"><path stroke-width="3.5" d="M 0 0 C 0 0 19.6516 -0.2739 26.4993 -0.5555 C 33.347 -0.8372 31.8172 -0.119 32.869 -1.3517 C 33.9208 -2.5845 31.3859 -4.3918 31.548 -6.4728 C 31.7101 -8.5538 32.535 -11.2727 33.6471 -11.3406 C 34.7592 -11.4084 36.3019 -8.5063 36.8862 -6.7985 C 37.4705 -5.0908 35.4548 -3.1602 36.4519 -3.1432 C 37.4491 -3.1263 39.7348 -6.2836 41.6725 -6.7171 C 43.6103 -7.1507 45.4081 -6.2195 45.7531 -5.2242 C 46.098 -4.229 44.9456 -3.15 43.3283 -1.9399 C 41.711 -0.7297 42.005 -2.9291 37.99 0.5845 C 33.9751 4.0981 31.9355 11.6219 24.0564 14.9253 C 16.1772 18.2287 7.4461 19.318 0.1701 16.4408 C -7.1059 13.5636 -10.0864 4.6643 -10.8683 1.1147 C -11.6501 -2.4349 -5.7873 -0.3609 -3.5829 -0.5972 C -1.3786 -0.8335 -0.2872 -0.0195 -0.2872 -0.0195" transform="scale(1)" stroke="#1d1d1d" fill="none"/></g><g transform="matrix(1, 0, 0, 1, 353.98, -86.0901)" opacity="1"><path fill="#e8e8e8" d="M 0 0 L 5.5664 0 L 5.5664 5.5664 L 0 5.5664 Z"/><path stroke-width="3.5" d="M 0 0 L 5.5664 0 L 5.5664 5.5664 L 0 5.5664 Z" fill="none" stroke="#1d1d1d"/></g><g transform="matrix(1, 0, 0, 1, 360.938, -86.3453)" opacity="1"><path fill="#e8e8e8" d="M 0 0 L 5.5664 0 L 5.5664 5.5664 L 0 5.5664 Z"/><path stroke-width="3.5" d="M 0 0 L 5.5664 0 L 5.5664 5.5664 L 0 5.5664 Z" fill="none" stroke="#1d1d1d"/></g><g transform="matrix(1, 0, 0, 1, 368.2206, -86.2293)" opacity="1"><path fill="#e8e8e8" d="M 0 0 L 5.5664 0 L 5.5664 5.5664 L 0 5.5664 Z"/><path stroke-width="3.5" d="M 0 0 L 5.5664 0 L 5.5664 5.5664 L 0 5.5664 Z" fill="none" stroke="#1d1d1d"/></g><g transform="matrix(1, 0, 0, 1, 375.4801, -86.5772)" opacity="1"><path fill="#e8e8e8" d="M 0 0 L 5.5664 0 L 5.5664 5.5664 L 0 5.5664 Z"/><path stroke-width="3.5" d="M 0 0 L 5.5664 0 L 5.5664 5.5664 L 0 5.5664 Z" fill="none" stroke="#1d1d1d"/></g><g transform="matrix(1, 0, 0, 1, 382.3684, -86.4844)" opacity="1"><path fill="#e8e8e8" d="M 0 0 L 5.5664 0 L 5.5664 5.5664 L 0 5.5664 Z"/><path stroke-width="3.5" d="M 0 0 L 5.5664 0 L 5.5664 5.5664 L 0 5.5664 Z" fill="none" stroke="#1d1d1d"/></g><g transform="matrix(1, 0, 0, 1, 360.7408, -93.0944)" opacity="1"><path fill="#e8e8e8" d="M 0 0 L 5.5664 0 L 5.5664 5.5664 L 0 5.5664 Z"/><path stroke-width="3.5" d="M 0 0 L 5.5664 0 L 5.5664 5.5664 L 0 5.5664 Z" fill="none" stroke="#1d1d1d"/></g><g transform="matrix(1, 0, 0, 1, 368.0467, -93.0017)" opacity="1"><path fill="#e8e8e8" d="M 0 0 L 5.5664 0 L 5.5664 5.5664 L 0 5.5664 Z"/><path stroke-width="3.5" d="M 0 0 L 5.5664 0 L 5.5664 5.5664 L 0 5.5664 Z" fill="none" stroke="#1d1d1d"/></g><g transform="matrix(1, 0, 0, 1, 375.4453, -93.0017)" opacity="1"><path fill="#e8e8e8" d="M 0 0 L 5.5664 0 L 5.5664 5.5664 L 0 5.5664 Z"/><path stroke-width="3.5" d="M 0 0 L 5.5664 0 L 5.5664 5.5664 L 0 5.5664 Z" fill="none" stroke="#1d1d1d"/></g><g transform="matrix(1, 0, 0, 1, 375.2017, -100.0988)" opacity="1"><path fill="#e8e8e8" d="M 0 0 L 5.5664 0 L 5.5664 5.5664 L 0 5.5664 Z"/><path stroke-width="3.5" d="M 0 0 L 5.5664 0 L 5.5664 5.5664 L 0 5.5664 Z" fill="none" stroke="#1d1d1d"/></g><g transform="matrix(1, 0, 0, 1, 662.0139, -236.3623)" opacity="1"><path stroke-width="3.5" d="M 0 0 L 44.891 0 L 44.891 68.6547 L 0 68.6547 Z" fill="none" stroke="#1d1d1d"/></g><g transform="matrix(1, 0, 0, 1, 667.1534, -231.1281)" opacity="1"><path stroke-width="3.5" d="M 0 0 L 35.3727 0 L 35.3727 52.5082 L 0 52.5082 Z" fill="none" stroke="#1d1d1d"/></g><g transform="matrix(1, 0, 0, 1, 681.2176, -176.3727)" opacity="1"><path stroke-width="3.5" d="M 0 3.6221 C 0 1.6217 1.6217 0 3.6221 0 C 5.6225 0 7.2442 1.6217 7.2442 3.6221 C 7.2442 5.6225 5.6225 7.2442 3.6221 7.2442 C 1.6217 7.2442 0 5.6225 0 3.6221" fill="none" stroke="#1d1d1d"/></g><g transform="matrix(1, 0, 0, 1, 672.4019, -224.4441)" opacity="1"><path stroke-width="3.5" d="M 0 0 L 24.8756 0 L 24.8756 12.608 L 0 12.608 Z" fill="none" stroke="#1d1d1d"/></g><g transform="matrix(1, 0, 0, 1, 672.4019, -201.9038)" opacity="1"><path stroke-width="3.5" d="M 0 0 L 24.8756 0 L 24.8756 12.608 L 0 12.608 Z" fill="none" stroke="#1d1d1d"/></g><g transform="matrix(1, 0, 0, 1, 464.916, -109.7479)" opacity="1"><path fill="#e8e8e8" d="M 0 26.7085 C 0 11.9578 11.9578 0 26.7085 0 C 41.4591 0 53.4169 11.9578 53.4169 26.7085 C 53.4169 41.4591 41.4591 53.4169 26.7085 53.4169 C 11.9578 53.4169 0 41.4591 0 26.7085"/><path stroke-width="2" d="M 0.6432 26.6771 C -0.2183 12.2899 11.7395 0.3321 26.4902 0.3321 C 40.9626 -0.4099 52.9204 11.5479 52.9204 26.2985 C 53.2031 41.3269 41.2453 53.2847 26.4947 53.2847 C 12.6009 53.3856 0.6432 41.4278 0.6432 26.6771 M 0.2743 26.3816 C -0.3076 12.0968 11.6502 0.139 26.4009 0.139 C 41.9807 0.489 53.9384 12.4468 53.9384 27.1975 C 53.5287 42.049 41.5709 54.0068 26.8202 54.0068 C 12.2321 53.0901 0.2743 41.1323 0.2743 26.3816" fill="none" stroke="#1d1d1d"/></g><g transform="matrix(0.7071, -0.7071, 0.7071, 0.7071, 478.7992, -71.7061)" opacity="1"><path fill="#e8e8e8" d="M 4 0 L 30.9264 0 Q 34.9264 0 34.9264 0.856 L 34.9264 2.5681 Q 34.9264 3.4242 30.9264 3.4242 L 4 3.4242 Q 0 3.4242 0 2.5681 L 0 0.856 Q 0 0 4 0"/><path stroke-width="2" d="M 4.5039 0.6625 L 30.9264 0 Q 34.9264 0 34.9264 0.856 L 34.9264 2.5681 Q 34.9264 3.4242 30.9264 3.4242 L 4 3.4242 Q 0 3.4242 0 2.5681 L 0.5039 1.5185 Q 0.5039 0.6625 4.5039 0.6625 M 4.2452 0.3747 L 30.9264 0 Q 34.9264 0 34.9264 0.856 L 34.9264 2.5681 Q 34.9264 3.4242 30.9264 3.4242 L 4 3.4242 Q 0 3.4242 0 2.5681 L 0.2452 1.2308 Q 0.2452 0.3747 4.2452 0.3747" fill="none" stroke="#1d1d1d"/></g><g transform="matrix(0.7071, 0.7071, -0.7071, 0.7071, 481.9053, -95.7179)" opacity="1"><path fill="#e8e8e8" d="M 4 0 L 30.9264 0 Q 34.9264 0 34.9264 0.856 L 34.9264 2.5681 Q 34.9264 3.4242 30.9264 3.4242 L 4 3.4242 Q 0 3.4242 0 2.5681 L 0 0.856 Q 0 0 4 0"/><path stroke-width="2" d="M 3.4641 -0.2838 L 30.9264 0 Q 34.9264 0 34.9264 0.856 L 34.9264 2.5681 Q 34.9264 3.4242 30.9264 3.4242 L 4 3.4242 Q 0 3.4242 0 2.5681 L -0.5359 0.5722 Q -0.5359 -0.2838 3.4641 -0.2838 M 3.7854 -0.0768 L 30.9264 0 Q 34.9264 0 34.9264 0.856 L 34.9264 2.5681 Q 34.9264 3.4242 30.9264 3.4242 L 4 3.4242 Q 0 3.4242 0 2.5681 L -0.2146 0.7792 Q -0.2146 -0.0768 3.7854 -0.0768" fill="none" stroke="#1d1d1d"/></g><g transform="matrix(0.7051, 0.7091, -0.7091, 0.7051, 580.6326, -91.9203)" opacity="1"><path fill="#e8e8e8" d="M 4 0 L 44.4678 0 Q 48.4678 0 48.4678 1.1879 L 48.4678 3.5638 Q 48.4678 4.7517 44.4678 4.7517 L 4 4.7517 Q 0 4.7517 0 3.5638 L 0 1.1879 Q 0 0 4 0"/><path stroke-width="2" d="M 3.5312 0.0737 L 44.4678 0 Q 48.4678 0 48.4678 1.1879 L 48.4678 3.5638 Q 48.4678 4.7517 44.4678 4.7517 L 4 4.7517 Q 0 4.7517 0 3.5638 L -0.4688 1.2616 Q -0.4688 0.0737 3.5312 0.0737 M 3.8863 0.2859 L 44.4678 0 Q 48.4678 0 48.4678 1.1879 L 48.4678 3.5638 Q 48.4678 4.7517 44.4678 4.7517 L 4 4.7517 Q 0 4.7517 0 3.5638 L -0.1137 1.4738 Q -0.1137 0.2859 3.8863 0.2859" fill="none" stroke="#1d1d1d"/></g><g transform="matrix(1, 0, 0, 1, 550.3389, -117.2031)" opacity="1"><path fill="#e8e8e8" d="M 0 22.7264 C 0 10.175 10.175 0 22.7264 0 C 35.2779 0 45.4529 10.175 45.4529 22.7264 C 45.4529 35.2779 35.2779 45.4529 22.7264 45.4529 C 10.175 45.4529 0 35.2779 0 22.7264"/><path stroke-width="2" d="M -0.529 22.164 C -0.0965 10.7923 10.0785 0.6174 22.63 0.6174 C 35.8029 -0.2293 45.9778 9.9456 45.9778 22.4971 C 45.3473 35.0874 35.1723 45.2624 22.6208 45.2624 C 9.646 44.8904 -0.529 34.7155 -0.529 22.164 M -0.2206 22.293 C -0.002 10.612 10.173 0.437 22.7244 0.437 C 34.7793 0.3301 44.9543 10.505 44.9543 23.0565 C 45.6625 35.6774 35.4875 45.8524 22.9361 45.8524 C 9.9544 45.0194 -0.2206 34.8444 -0.2206 22.293" fill="none" stroke="#1d1d1d"/></g><g transform="matrix(1, 0, 0, 1, 557.1519, -109.6729)" opacity="1"><path fill="#fcfffe" d="M 0 16.304 C 0 7.2995 7.2995 0 16.304 0 C 25.3084 0 32.6079 7.2995 32.6079 16.304 C 32.6079 25.3084 25.3084 32.6079 16.304 32.6079 C 7.2995 32.6079 0 25.3084 0 16.304"/><path stroke-width="2" d="M -0.1827 16.1213 C 0.2541 7.8077 7.5536 0.5081 16.558 0.5081 C 25.1265 0.5144 32.426 7.814 32.426 16.8184 C 33.1797 25.9328 25.8802 33.2323 16.8758 33.2323 C 7.1168 32.4252 -0.1827 25.1257 -0.1827 16.1213 M -0.5665 16.1591 C 0.1777 7.6583 7.4773 0.3588 16.4817 0.3588 C 25.4417 -0.5915 32.7413 6.708 32.7413 15.7124 C 32.1824 25.1429 24.8829 32.4425 15.8784 32.4425 C 6.733 32.463 -0.5665 25.1635 -0.5665 16.1591" fill="none" stroke="#1d1d1d"/></g><g transform="matrix(1, 0, 0, 1, 647.4981, -117.6182)" opacity="1"><path stroke-width="2" d="M 0 0 L 34.4369 0.1721 Q 38.4369 0.1721 38.7559 4.1593 L 44.1366 77.3432 Q 44.2687 78.9949 43.1632 77.7607 L 24.9122 56.2 Q 22.6634 53.6897 20.7799 56.4845 L 7.1976 76.05 Q 6.2482 77.4589 6.1222 75.7646 L 0 0 M 0 0 L 34.5144 0.0229 Q 38.5144 0.0229 38.8334 4.0102 L 45.1182 77.1588 Q 45.2503 78.8105 44.1447 77.5763 L 23.8993 55.6468 Q 21.6505 53.1365 19.767 55.9313 L 7.154 76.5903 Q 6.2045 77.9992 6.0786 76.3049 L 0 0" transform="scale(1)" stroke="#1d1d1d" fill="none"/></g><g transform="matrix(0.7028, -0.7114, 0.7114, 0.7028, 732.1463, -125.3445)" opacity="1"><path stroke-width="2" d="M 0 0 L -18.8314 23.9899 Q -21.2314 27.1899 -21.0851 31.1872 L -18.7039 74.206 Q -18.5602 78.1324 -14.6393 77.8795 L 15.503 76.384 Q 19.4947 76.1264 19.3922 72.1278 L 19.2453 31.0753 Q 19.1428 27.0766 16.8894 23.7717 L 0 0 M 0 0 L -18.7591 24.139 Q -21.1591 27.339 -21.0128 31.3364 L -19.0553 75.3536 Q -18.9116 79.2801 -14.9907 79.0271 L 16.4952 77.1722 Q 20.4869 76.9147 20.3844 72.916 L 19.3361 31.618 Q 19.2335 27.6193 16.9802 24.3144 L 0 0" transform="scale(1)" stroke="#1d1d1d" fill="none"/></g><g transform="matrix(1, 0, 0, 1, 750.3745, -105.9489)" opacity="1"><path fill="#e8e8e8" d="M 0 3.75 C 0 1.6789 2.0987 0 4.6875 0 C 7.2763 0 9.375 1.6789 9.375 3.75 C 9.375 5.8211 7.2763 7.5 4.6875 7.5 C 2.0987 7.5 0 5.8211 0 3.75"/><path stroke-width="2" d="M 0.6065 3.1004 C 0.1698 1.8752 2.2684 0.1963 4.8573 0.1963 C 7.0974 0.1567 9.1961 1.8356 9.1961 3.9067 C 9.3372 6.2675 7.2386 7.9464 4.6497 7.9464 C 2.7051 6.8504 0.6065 5.1715 0.6065 3.1004 M 0.3106 3.3934 C 0.263 1.6835 2.3617 0.0045 4.9505 0.0045 C 7.4075 -0.069 9.5061 1.6099 9.5061 3.681 C 9.6834 5.5004 7.5848 7.1793 4.9959 7.1793 C 2.4093 7.1434 0.3106 5.4645 0.3106 3.3934" fill="none" stroke="#1d1d1d"/></g></svg>