<svg xmlns="http://www.w3.org/2000/svg" direction="ltr" width="108.89096291762417" height="132.654731860146" viewBox="630.0138527133256 -268.3623444131466 108.89096291762417 132.654731860146" stroke-linecap="round" stroke-linejoin="round" data-color-mode="light" class="tl-container tl-theme__force-sRGB tl-theme__light" style="background-color: rgb(249, 250, 251);"><defs/><g transform="matrix(1, 0, 0, 1, 662.0139, -236.3623)" opacity="1"><path stroke-width="3.5" d="M 0 0 L 44.891 0 L 44.891 68.6547 L 0 68.6547 Z" fill="none" stroke="#1d1d1d"/></g><g transform="matrix(1, 0, 0, 1, 667.1534, -231.1281)" opacity="1"><path stroke-width="3.5" d="M 0 0 L 35.3727 0 L 35.3727 52.5082 L 0 52.5082 Z" fill="none" stroke="#1d1d1d"/></g><g transform="matrix(1, 0, 0, 1, 681.2176, -176.3727)" opacity="1"><path stroke-width="3.5" d="M 0 3.6221 C 0 1.6217 1.6217 0 3.6221 0 C 5.6225 0 7.2442 1.6217 7.2442 3.6221 C 7.2442 5.6225 5.6225 7.2442 3.6221 7.2442 C 1.6217 7.2442 0 5.6225 0 3.6221" fill="none" stroke="#1d1d1d"/></g><g transform="matrix(1, 0, 0, 1, 672.4019, -224.4441)" opacity="1"><path stroke-width="3.5" d="M 0 0 L 24.8756 0 L 24.8756 12.608 L 0 12.608 Z" fill="none" stroke="#1d1d1d"/></g><g transform="matrix(1, 0, 0, 1, 672.4019, -201.9038)" opacity="1"><path stroke-width="3.5" d="M 0 0 L 24.8756 0 L 24.8756 12.608 L 0 12.608 Z" fill="none" stroke="#1d1d1d"/></g></svg>