<svg xmlns="http://www.w3.org/2000/svg" direction="ltr" width="108.89096291762422" height="132.654731860146" viewBox="389.68502285855783 23.227638759149727 108.89096291762422 132.654731860146" stroke-linecap="round" stroke-linejoin="round" data-color-mode="dark" class="tl-container tl-theme__force-sRGB tl-theme__dark" style="background-color: transparent;"><defs/><g transform="matrix(1, 0, 0, 1, 421.685, 55.2276)" opacity="1"><path stroke-width="3.5" d="M 0 0 L 44.891 0 L 44.891 68.6547 L 0 68.6547 Z" fill="none" stroke="#e8e8e8"/></g><g transform="matrix(1, 0, 0, 1, 426.8245, 60.4619)" opacity="1"><path stroke-width="3.5" d="M 0 0 L 35.3727 0 L 35.3727 52.5082 L 0 52.5082 Z" fill="none" stroke="#e8e8e8"/></g><g transform="matrix(1, 0, 0, 1, 440.8888, 115.2172)" opacity="1"><path stroke-width="3.5" d="M 0 3.6221 C 0 1.6217 1.6217 0 3.6221 0 C 5.6225 0 7.2442 1.6217 7.2442 3.6221 C 7.2442 5.6225 5.6225 7.2442 3.6221 7.2442 C 1.6217 7.2442 0 5.6225 0 3.6221" fill="none" stroke="#e8e8e8"/></g><g transform="matrix(1, 0, 0, 1, 432.0731, 67.1459)" opacity="1"><path stroke-width="3.5" d="M 0 0 L 24.8756 0 L 24.8756 12.608 L 0 12.608 Z" fill="none" stroke="#e8e8e8"/></g><g transform="matrix(1, 0, 0, 1, 432.0731, 89.6862)" opacity="1"><path stroke-width="3.5" d="M 0 0 L 24.8756 0 L 24.8756 12.608 L 0 12.608 Z" fill="none" stroke="#e8e8e8"/></g></svg>