<svg xmlns="http://www.w3.org/2000/svg" direction="ltr" width="139.87575333019197" height="140.28141963079855" viewBox="842.2444260917142 -275.9972444261678 139.87575333019197 140.28141963079855" stroke-linecap="round" stroke-linejoin="round" data-color-mode="light" class="tl-container tl-theme__force-sRGB tl-theme__light" style="background-color: transparent;"><defs/><g transform="matrix(1, 0, 0, 1, 874.2444, -243.9972)" opacity="1"><path stroke-width="2" d="M -0.0297 38.2781 C -0.397 17.1531 16.5883 0.0769 37.5408 0.0769 C 58.2574 0.5055 75.2428 17.5817 75.2428 38.6462 C 75.849 59.0839 58.8636 76.1601 37.9111 76.1601 C 16.9557 76.4188 -0.0297 59.3426 -0.0297 38.2781 M -0.3875 38.321 C -0.4941 17.3037 16.4913 0.2275 37.4438 0.2275 C 59.2393 -0.5956 76.2247 16.4806 76.2247 37.5451 C 76.1745 59.8689 59.1891 76.9451 38.2366 76.9451 C 16.5979 76.4617 -0.3875 59.3855 -0.3875 38.321" fill="none" stroke="#1d1d1d"/></g><g transform="matrix(1, 0, 0, 1, 884.2577, -218.7717)" opacity="1"><path stroke-width="2" d="M 0 0 L -0.1536 19.2049 Q -0.1176 23.2047 2.8308 23.2313 L 9.0525 22.6734 Q 12.0009 22.7 12.0467 20.5299 L 11.8333 15.6047 Q 11.879 13.4347 13.9173 14.8688 L 32.4961 28.3229 Q 35.7675 30.6246 35.3405 31.4205 L 34.4864 33.0122 Q 34.0594 33.8081 36.0064 34.1742 L 39.9004 34.9063 Q 41.8473 35.2724 41.8473 36.1107 L 41.8473 37.7874 Q 41.8473 38.6257 44.0638 38.5142 L 48.4988 38.2664 Q 50.7152 38.155 50.7202 35.8523 L 50.6182 31.1415 Q 50.6233 28.8388 48.4171 28.8653 L 44.1146 29.0488 Q 41.9084 29.0754 41.8982 29.7492 L 41.8778 31.0968 Q 41.8677 31.7707 41.125 30.5492 L 39.3514 27.6322 Q 38.5126 26.2527 38.0906 26.8417 L 37.2468 28.0195 Q 36.8249 28.6085 33.6857 26.2358 L 17.7733 13.8444 Q 16.456 12.8488 18.1072 12.8467 L 29.883 13.2691 Q 33.7748 13.2643 33.7493 13.8798 L 33.6985 15.1107 Q 33.6731 15.7262 35.5641 15.1107 L 39.3463 13.8798 Q 41.2373 13.2643 41.2373 14.3626 L 41.2373 16.5592 Q 41.2373 17.6574 43.5859 17.6415 L 48.064 17.9154 Q 50.4126 17.8995 50.438 15.5172 L 50.989 10.3777 Q 51.0144 7.9955 48.6506 7.9955 L 43.6418 8.0647 Q 41.278 8.0647 41.2424 8.8022 L 41.1712 10.2772 Q 41.1357 11.0147 39.2751 10.2613 L 35.554 8.7544 Q 33.6934 8.001 33.7341 8.5104 L 33.8154 9.5291 Q 33.8561 10.0384 30.0877 9.9963 L 18.4192 9.6321 Q 17.044 9.6167 18.2314 8.9228 L 32.802 0.4691 Q 36.2555 -1.5493 36.6266 -0.9816 L 37.3688 0.1539 Q 37.7399 0.7216 38.6092 -0.5889 L 40.3828 -3.2629 Q 41.217 -4.5205 41.2221 -3.7883 L 41.2322 -2.3239 Q 41.2373 -1.5917 43.5656 -1.5705 L 47.9085 -1.2838 Q 50.2367 -1.2626 50.2215 -3.7086 L 50.6496 -8.5587 Q 50.6344 -11.0047 48.2604 -11.0312 L 43.3673 -11.3702 Q 40.9933 -11.3967 40.973 -10.4045 L 40.9323 -8.4202 Q 40.912 -7.428 39.1887 -7.1415 L 35.7421 -6.5685 Q 34.0188 -6.282 34.2679 -5.5816 L 34.766 -4.1809 Q 35.0151 -3.4806 31.5449 -1.4912 L 14.2089 7.6817 Q 11.8189 9.0518 11.7426 6.6377 L 12.1207 2.7807 Q 12.0444 0.3666 9.096 0.3666 L 0 0 M 0 0 L -0.0789 19.0546 Q -0.0429 23.0544 2.9055 23.0809 L 8.9719 22.7102 Q 11.9203 22.7367 11.9661 20.5667 L 12.164 16.333 Q 12.2098 14.163 14.2481 15.5972 L 32.4961 28.3229 Q 35.7675 30.6246 35.3405 31.4205 L 34.4864 33.0122 Q 34.0594 33.8081 36.0064 34.1742 L 39.9004 34.9063 Q 41.8473 35.2724 41.8473 36.1107 L 41.8473 37.7874 Q 41.8473 38.6257 44.0638 38.5142 L 48.6066 38.162 Q 50.823 38.0506 50.828 35.7479 L 50.7356 31.3528 Q 50.7406 29.0501 48.5344 29.0766 L 44.1146 29.0488 Q 41.9084 29.0754 41.8982 29.7492 L 41.8778 31.0968 Q 41.8677 31.7707 41.125 30.5492 L 39.3514 27.6322 Q 38.5126 26.2527 38.0906 26.8417 L 37.2468 28.0195 Q 36.8249 28.6085 33.6857 26.2358 L 17.4869 13.6838 Q 16.1696 12.6882 17.8208 12.6861 L 29.883 13.2691 Q 33.7748 13.2643 33.7493 13.8798 L 33.6985 15.1107 Q 33.6731 15.7262 35.5641 15.1107 L 39.3463 13.8798 Q 41.2373 13.2643 41.2373 14.3626 L 41.2373 16.5592 Q 41.2373 17.6574 43.5859 17.6415 L 48.4648 17.6175 Q 50.8134 17.6016 50.8388 15.2193 L 50.9352 10.1431 Q 50.9607 7.7609 48.5968 7.7609 L 43.6418 8.0647 Q 41.278 8.0647 41.2424 8.8022 L 41.1712 10.2772 Q 41.1357 11.0147 39.2751 10.2613 L 35.554 8.7544 Q 33.6934 8.001 33.7341 8.5104 L 33.8154 9.5291 Q 33.8561 10.0384 30.0877 9.9963 L 18.2345 9.4504 Q 16.8594 9.435 18.0467 8.7411 L 32.802 0.4691 Q 36.2555 -1.5493 36.6266 -0.9816 L 37.3688 0.1539 Q 37.7399 0.7216 38.6092 -0.5889 L 40.3828 -3.2629 Q 41.217 -4.5205 41.2221 -3.7883 L 41.2322 -2.3239 Q 41.2373 -1.5917 43.5656 -1.5705 L 47.9944 -1.5514 Q 50.3226 -1.5302 50.3074 -3.9761 L 50.547 -8.541 Q 50.5317 -10.9869 48.1577 -11.0135 L 43.3673 -11.3702 Q 40.9933 -11.3967 40.973 -10.4045 L 40.9323 -8.4202 Q 40.912 -7.428 39.1887 -7.1415 L 35.7421 -6.5685 Q 34.0188 -6.282 34.2679 -5.5816 L 34.766 -4.1809 Q 35.0151 -3.4806 31.5449 -1.4912 L 14.6823 8.3131 Q 12.2923 9.6832 12.216 7.2691 L 11.9134 2.6048 Q 11.8372 0.1907 8.8887 0.1907 L 0 0" transform="scale(1)" stroke="#1d1d1d" fill="none"/></g></svg>