<svg xmlns="http://www.w3.org/2000/svg" direction="ltr" width="161.02110821154193" height="102.13395440553458" viewBox="223.24644565351835 -254.78114974371823 161.02110821154193 102.13395440553458" stroke-linecap="round" stroke-linejoin="round" data-color-mode="light" class="tl-container tl-theme__force-sRGB tl-theme__light" style="background-color: rgb(249, 250, 251);"><defs/><g transform="matrix(0, 1, -1, 0, 352.2676, -222.7566)" opacity="1"><path stroke-width="3.5" d="M 0 9.192 C 0 4.1154 8.5209 0 19.0321 0 C 29.5432 0 38.0641 4.1154 38.0641 9.192 C 38.0641 14.2685 29.5432 18.3839 19.0321 18.3839 C 8.5209 18.3839 0 14.2685 0 9.192" fill="none" stroke="#1d1d1d"/></g><g transform="matrix(0, 1, -1, 0, 343.2479, -184.721)" opacity="1"><path stroke-width="3.5" d="M 0 0 C 0 0 0.0738 76.1414 0.0738 76.1414" transform="scale(1)" stroke="#1d1d1d" fill="none"/></g><g transform="matrix(0, 1, -1, 0, 342.7063, -222.713)" opacity="1"><path stroke-width="3.5" d="M 0 0 C 0 0 -0.0681 75.7903 -0.0681 75.7903" transform="scale(1)" stroke="#1d1d1d" fill="none"/></g><g transform="matrix(0, 1, -1, 0, 251.1199, -216.206)" opacity="1"><path stroke-width="3.5" d="M -6.529 -15.9329 C -6.6838 -16.486 -5.5116 -10.5934 -1.5791 -8.1351 C 2.5002 -5.3116 6.5548 -4.1697 12.3391 -4.3211 C 18.5736 -5.3683 22.7804 -6.8867 26.7823 -9.3924 C 30.3419 -10.8142 31.5562 -16.1603 31.5562 -16.1603 M -6.529 -15.9329 C -6.5484 -16.1687 -5.3762 -10.276 -1.4437 -7.8177 C 3.0513 -5.0527 7.1059 -3.9108 12.8902 -4.0622 C 18.0128 -4.0037 22.2197 -5.522 26.2216 -8.0277 C 30.3419 -10.8142 31.5562 -16.1603 31.5562 -16.1603" transform="scale(1)" stroke="#1d1d1d" fill="none"/></g></svg>