<svg xmlns="http://www.w3.org/2000/svg" direction="ltr" width="161.021108211542" height="102.13395440553458" viewBox="683.3851076030143 158.82606306211557 161.021108211542 102.13395440553458" stroke-linecap="round" stroke-linejoin="round" data-color-mode="light" class="tl-container tl-theme__force-sRGB tl-theme__light" style="background-color: transparent;"><defs/><g transform="matrix(0, 1, -1, 0, 812.4062, 190.8507)" opacity="1"><path stroke-width="3.5" d="M 0 9.192 C 0 4.1154 8.5209 0 19.0321 0 C 29.5432 0 38.0641 4.1154 38.0641 9.192 C 38.0641 14.2685 29.5432 18.3839 19.0321 18.3839 C 8.5209 18.3839 0 14.2685 0 9.192" fill="none" stroke="#1d1d1d"/></g><g transform="matrix(0, 1, -1, 0, 803.3866, 228.8862)" opacity="1"><path stroke-width="3.5" d="M 0 0 C 0 0 0.0738 76.1414 0.0738 76.1414" transform="scale(1)" stroke="#1d1d1d" fill="none"/></g><g transform="matrix(0, 1, -1, 0, 802.845, 190.8942)" opacity="1"><path stroke-width="3.5" d="M 0 0 C 0 0 -0.0681 75.7903 -0.0681 75.7903" transform="scale(1)" stroke="#1d1d1d" fill="none"/></g><g transform="matrix(0, 1, -1, 0, 711.2586, 197.4012)" opacity="1"><path stroke-width="3.5" d="M -6.529 -15.9329 C -6.6838 -16.486 -5.5116 -10.5934 -1.5791 -8.1351 C 2.5002 -5.3116 6.5548 -4.1697 12.3391 -4.3211 C 18.5736 -5.3683 22.7804 -6.8867 26.7823 -9.3924 C 30.3419 -10.8142 31.5562 -16.1603 31.5562 -16.1603 M -6.529 -15.9329 C -6.5484 -16.1687 -5.3762 -10.276 -1.4437 -7.8177 C 3.0513 -5.0527 7.1059 -3.9108 12.8902 -4.0622 C 18.0128 -4.0037 22.2197 -5.522 26.2216 -8.0277 C 30.3419 -10.8142 31.5562 -16.1603 31.5562 -16.1603" transform="scale(1)" stroke="#1d1d1d" fill="none"/></g></svg>