<svg xmlns="http://www.w3.org/2000/svg" direction="ltr" width="111.14232144685536" height="148.09795817994467" viewBox="513.8508110864965 -275.507962974589 111.14232144685536 148.09795817994467" stroke-linecap="round" stroke-linejoin="round" data-color-mode="light" class="tl-container tl-theme__force-sRGB tl-theme__light" style="background-color: rgb(249, 250, 251);"><defs/><g transform="matrix(1, 0, 0, 1, 545.8508, -243.508)" opacity="1"><path stroke-width="3.5" d="M 0 0 L 47.1423 0 L 47.1423 84.098 L 0 84.098 Z" fill="none" stroke="#1d1d1d"/></g><g transform="matrix(1, 0, 0, 1, 551.5235, -234.2046)" opacity="1"><path stroke-width="3.5" d="M 0 0 C 0 0 36.1424 0 36.1424 0" transform="scale(1)" stroke="#1d1d1d" fill="none"/></g><g transform="matrix(1, 0, 0, 1, 551.3507, -226.4632)" opacity="1"><path stroke-width="3.5" d="M 0 0 C 0 0 36.1424 0 36.1424 0" transform="scale(1)" stroke="#1d1d1d" fill="none"/></g><g transform="matrix(1, 0, 0, 1, 551.3117, -218.7219)" opacity="1"><path stroke-width="3.5" d="M 0 0 C 0 0 36.1424 0 36.1424 0" transform="scale(1)" stroke="#1d1d1d" fill="none"/></g><g transform="matrix(1, 0, 0, 1, 551.3117, -210.9806)" opacity="1"><path stroke-width="3.5" d="M 0 0 C 0 0 36.1424 0 36.1424 0" transform="scale(1)" stroke="#1d1d1d" fill="none"/></g></svg>