<svg xmlns="http://www.w3.org/2000/svg" direction="ltr" width="111.14232144685536" height="148.09795817994467" viewBox="564.3682649946572 -279.1753739237811 111.14232144685536 148.09795817994467" stroke-linecap="round" stroke-linejoin="round" data-color-mode="light" class="tl-container tl-theme__force-sRGB tl-theme__light" style="background-color: transparent;"><defs/><g transform="matrix(1, 0, 0, 1, 596.3683, -247.1754)" opacity="1"><path stroke-width="3.5" d="M 0 0 L 47.1423 0 L 47.1423 84.098 L 0 84.098 Z" fill="none" stroke="#1d1d1d"/></g><g transform="matrix(1, 0, 0, 1, 602.041, -237.872)" opacity="1"><path stroke-width="3.5" d="M 0 0 C 0 0 36.1424 0 36.1424 0" transform="scale(1)" stroke="#1d1d1d" fill="none"/></g><g transform="matrix(1, 0, 0, 1, 601.8682, -230.1307)" opacity="1"><path stroke-width="3.5" d="M 0 0 C 0 0 36.1424 0 36.1424 0" transform="scale(1)" stroke="#1d1d1d" fill="none"/></g><g transform="matrix(1, 0, 0, 1, 601.8291, -222.3893)" opacity="1"><path stroke-width="3.5" d="M 0 0 C 0 0 36.1424 0 36.1424 0" transform="scale(1)" stroke="#1d1d1d" fill="none"/></g><g transform="matrix(1, 0, 0, 1, 601.8291, -214.648)" opacity="1"><path stroke-width="3.5" d="M 0 0 C 0 0 36.1424 0 36.1424 0" transform="scale(1)" stroke="#1d1d1d" fill="none"/></g></svg>