<svg xmlns="http://www.w3.org/2000/svg" direction="ltr" width="166.5032488431383" height="123.7756527574345" viewBox="222.33012105448296 59.63184545107339 166.5032488431383 123.7756527574345" stroke-linecap="round" stroke-linejoin="round" data-color-mode="dark" class="tl-container tl-theme__force-sRGB tl-theme__dark" style="background-color: transparent;"><defs/><g transform="matrix(1, 0, 0, 1, 254.3301, 91.6318)" opacity="1"><path stroke-width="2" d="M 3.845 0.499 L 98.0354 -0.6522 Q 102.0354 -0.6522 102.0354 3.3478 L 101.2264 56.2642 Q 101.2264 60.2642 97.2264 60.2642 L 3.4735 60.0336 Q -0.5265 60.0336 -0.5265 56.0336 L -0.155 4.499 Q -0.155 0.499 3.845 0.499 M 3.5725 0.5368 L 98.131 -0.4601 Q 102.131 -0.4601 102.131 3.5399 L 102.208 55.3663 Q 102.208 59.3663 98.208 59.3663 L 4.4658 59.3088 Q 0.4658 59.3088 0.4658 55.3088 L -0.4275 4.5368 Q -0.4275 0.5368 3.5725 0.5368" fill="none" stroke="#e8e8e8"/></g><g transform="matrix(1, 0, 0, 1, 255.2448, 107.0569)" opacity="1"><path stroke-width="2" d="M 0 0 C 0 0 101.5886 -0.6896 101.5886 -0.6896 M 0 0 C 0 0 101.5886 -0.6896 101.5886 -0.6896" transform="scale(1)" stroke="#e8e8e8" fill="none"/></g></svg>