<svg xmlns="http://www.w3.org/2000/svg" direction="ltr" width="117.41690155261904" height="117.41690155261902" viewBox="432.9160224627459 -141.74790594223373 117.41690155261904 117.41690155261902" stroke-linecap="round" stroke-linejoin="round" data-color-mode="light" class="tl-container tl-theme__force-sRGB tl-theme__light" style="background-color: rgb(249, 250, 251);"><defs/><g transform="matrix(1, 0, 0, 1, 464.916, -109.7479)" opacity="1"><path fill="#e8e8e8" d="M 0 26.7085 C 0 11.9578 11.9578 0 26.7085 0 C 41.4591 0 53.4169 11.9578 53.4169 26.7085 C 53.4169 41.4591 41.4591 53.4169 26.7085 53.4169 C 11.9578 53.4169 0 41.4591 0 26.7085"/><path stroke-width="2" d="M 0.6432 26.6771 C -0.2183 12.2899 11.7395 0.3321 26.4902 0.3321 C 40.9626 -0.4099 52.9204 11.5479 52.9204 26.2985 C 53.2031 41.3269 41.2453 53.2847 26.4947 53.2847 C 12.6009 53.3856 0.6432 41.4278 0.6432 26.6771 M 0.2743 26.3816 C -0.3076 12.0968 11.6502 0.139 26.4009 0.139 C 41.9807 0.489 53.9384 12.4468 53.9384 27.1975 C 53.5287 42.049 41.5709 54.0068 26.8202 54.0068 C 12.2321 53.0901 0.2743 41.1323 0.2743 26.3816" fill="none" stroke="#1d1d1d"/></g><g transform="matrix(0.7071, -0.7071, 0.7071, 0.7071, 478.7992, -71.7061)" opacity="1"><path fill="#e8e8e8" d="M 4 0 L 30.9264 0 Q 34.9264 0 34.9264 0.856 L 34.9264 2.5681 Q 34.9264 3.4242 30.9264 3.4242 L 4 3.4242 Q 0 3.4242 0 2.5681 L 0 0.856 Q 0 0 4 0"/><path stroke-width="2" d="M 4.5039 0.6625 L 30.9264 0 Q 34.9264 0 34.9264 0.856 L 34.9264 2.5681 Q 34.9264 3.4242 30.9264 3.4242 L 4 3.4242 Q 0 3.4242 0 2.5681 L 0.5039 1.5185 Q 0.5039 0.6625 4.5039 0.6625 M 4.2452 0.3747 L 30.9264 0 Q 34.9264 0 34.9264 0.856 L 34.9264 2.5681 Q 34.9264 3.4242 30.9264 3.4242 L 4 3.4242 Q 0 3.4242 0 2.5681 L 0.2452 1.2308 Q 0.2452 0.3747 4.2452 0.3747" fill="none" stroke="#1d1d1d"/></g><g transform="matrix(0.7071, 0.7071, -0.7071, 0.7071, 481.9053, -95.7179)" opacity="1"><path fill="#e8e8e8" d="M 4 0 L 30.9264 0 Q 34.9264 0 34.9264 0.856 L 34.9264 2.5681 Q 34.9264 3.4242 30.9264 3.4242 L 4 3.4242 Q 0 3.4242 0 2.5681 L 0 0.856 Q 0 0 4 0"/><path stroke-width="2" d="M 3.4641 -0.2838 L 30.9264 0 Q 34.9264 0 34.9264 0.856 L 34.9264 2.5681 Q 34.9264 3.4242 30.9264 3.4242 L 4 3.4242 Q 0 3.4242 0 2.5681 L -0.5359 0.5722 Q -0.5359 -0.2838 3.4641 -0.2838 M 3.7854 -0.0768 L 30.9264 0 Q 34.9264 0 34.9264 0.856 L 34.9264 2.5681 Q 34.9264 3.4242 30.9264 3.4242 L 4 3.4242 Q 0 3.4242 0 2.5681 L -0.2146 0.7792 Q -0.2146 -0.0768 3.7854 -0.0768" fill="none" stroke="#1d1d1d"/></g></svg>