<svg xmlns="http://www.w3.org/2000/svg" direction="ltr" width="128.46903931571188" height="127.0014902324989" viewBox="302.6973572831756 82.15696099580225 128.46903931571188 127.0014902324989" stroke-linecap="round" stroke-linejoin="round" data-color-mode="light" class="tl-container tl-theme__force-sRGB tl-theme__light" style="background-color: transparent;"><defs/><g transform="matrix(0.7051, 0.7091, -0.7091, 0.7051, 364.9911, 139.4398)" opacity="1"><path fill="#e8e8e8" d="M 4 0 L 44.4678 0 Q 48.4678 0 48.4678 1.1879 L 48.4678 3.5638 Q 48.4678 4.7517 44.4678 4.7517 L 4 4.7517 Q 0 4.7517 0 3.5638 L 0 1.1879 Q 0 0 4 0"/><path stroke-width="2" d="M 3.5312 0.0737 L 44.4678 0 Q 48.4678 0 48.4678 1.1879 L 48.4678 3.5638 Q 48.4678 4.7517 44.4678 4.7517 L 4 4.7517 Q 0 4.7517 0 3.5638 L -0.4688 1.2616 Q -0.4688 0.0737 3.5312 0.0737 M 3.8863 0.2859 L 44.4678 0 Q 48.4678 0 48.4678 1.1879 L 48.4678 3.5638 Q 48.4678 4.7517 44.4678 4.7517 L 4 4.7517 Q 0 4.7517 0 3.5638 L -0.1137 1.4738 Q -0.1137 0.2859 3.8863 0.2859" fill="none" stroke="#1d1d1d"/></g><g transform="matrix(1, 0, 0, 1, 334.6974, 114.157)" opacity="1"><path fill="#e8e8e8" d="M 0 22.7264 C 0 10.175 10.175 0 22.7264 0 C 35.2779 0 45.4529 10.175 45.4529 22.7264 C 45.4529 35.2779 35.2779 45.4529 22.7264 45.4529 C 10.175 45.4529 0 35.2779 0 22.7264"/><path stroke-width="2" d="M -0.529 22.164 C -0.0965 10.7923 10.0785 0.6174 22.63 0.6174 C 35.8029 -0.2293 45.9778 9.9456 45.9778 22.4971 C 45.3473 35.0874 35.1723 45.2624 22.6208 45.2624 C 9.646 44.8904 -0.529 34.7155 -0.529 22.164 M -0.2206 22.293 C -0.002 10.612 10.173 0.437 22.7244 0.437 C 34.7793 0.3301 44.9543 10.505 44.9543 23.0565 C 45.6625 35.6774 35.4875 45.8524 22.9361 45.8524 C 9.9544 45.0194 -0.2206 34.8444 -0.2206 22.293" fill="none" stroke="#1d1d1d"/></g><g transform="matrix(1, 0, 0, 1, 341.5104, 121.6872)" opacity="1"><path fill="#fcfffe" d="M 0 16.304 C 0 7.2995 7.2995 0 16.304 0 C 25.3084 0 32.6079 7.2995 32.6079 16.304 C 32.6079 25.3084 25.3084 32.6079 16.304 32.6079 C 7.2995 32.6079 0 25.3084 0 16.304"/><path stroke-width="2" d="M -0.1827 16.1213 C 0.2541 7.8077 7.5536 0.5081 16.558 0.5081 C 25.1265 0.5144 32.426 7.814 32.426 16.8184 C 33.1797 25.9328 25.8802 33.2323 16.8758 33.2323 C 7.1168 32.4252 -0.1827 25.1257 -0.1827 16.1213 M -0.5665 16.1591 C 0.1777 7.6583 7.4773 0.3588 16.4817 0.3588 C 25.4417 -0.5915 32.7413 6.708 32.7413 15.7124 C 32.1824 25.1429 24.8829 32.4425 15.8784 32.4425 C 6.733 32.463 -0.5665 25.1635 -0.5665 16.1591" fill="none" stroke="#1d1d1d"/></g></svg>