<svg xmlns="http://www.w3.org/2000/svg" direction="ltr" width="108.73684210526312" height="142.9473684210526" viewBox="615.4980792071549 -149.618159154912 108.73684210526312 142.9473684210526" stroke-linecap="round" stroke-linejoin="round" data-color-mode="light" class="tl-container tl-theme__force-sRGB tl-theme__light" style="background-color: transparent;"><defs/><g transform="matrix(1, 0, 0, 1, 647.4981, -117.6182)" opacity="1"><path stroke-width="2" d="M 0 0 L 34.4369 0.1721 Q 38.4369 0.1721 38.7559 4.1593 L 44.1366 77.3432 Q 44.2687 78.9949 43.1632 77.7607 L 24.9122 56.2 Q 22.6634 53.6897 20.7799 56.4845 L 7.1976 76.05 Q 6.2482 77.4589 6.1222 75.7646 L 0 0 M 0 0 L 34.5144 0.0229 Q 38.5144 0.0229 38.8334 4.0102 L 45.1182 77.1588 Q 45.2503 78.8105 44.1447 77.5763 L 23.8993 55.6468 Q 21.6505 53.1365 19.767 55.9313 L 7.154 76.5903 Q 6.2045 77.9992 6.0786 76.3049 L 0 0" transform="scale(1)" stroke="#9fa8b2" fill="none"/></g></svg>