<svg xmlns="http://www.w3.org/2000/svg" direction="ltr" width="132.29854556112582" height="132.6848323219526" viewBox="700.1463047466077 -157.3445247545426 132.29854556112582 132.6848323219526" stroke-linecap="round" stroke-linejoin="round" data-color-mode="light" class="tl-container tl-theme__force-sRGB tl-theme__light" style="background-color: rgb(249, 250, 251);"><defs/><g transform="matrix(0.7028, -0.7114, 0.7114, 0.7028, 732.1463, -125.3445)" opacity="1"><path stroke-width="2" d="M 0 0 L -18.8314 23.9899 Q -21.2314 27.1899 -21.0851 31.1872 L -18.7039 74.206 Q -18.5602 78.1324 -14.6393 77.8795 L 15.503 76.384 Q 19.4947 76.1264 19.3922 72.1278 L 19.2453 31.0753 Q 19.1428 27.0766 16.8894 23.7717 L 0 0 M 0 0 L -18.7591 24.139 Q -21.1591 27.339 -21.0128 31.3364 L -19.0553 75.3536 Q -18.9116 79.2801 -14.9907 79.0271 L 16.4952 77.1722 Q 20.4869 76.9147 20.3844 72.916 L 19.3361 31.618 Q 19.2335 27.6193 16.9802 24.3144 L 0 0" transform="scale(1)" stroke="#1d1d1d" fill="none"/></g><g transform="matrix(1, 0, 0, 1, 750.3745, -105.9489)" opacity="1"><path fill="#e8e8e8" d="M 0 3.75 C 0 1.6789 2.0987 0 4.6875 0 C 7.2763 0 9.375 1.6789 9.375 3.75 C 9.375 5.8211 7.2763 7.5 4.6875 7.5 C 2.0987 7.5 0 5.8211 0 3.75"/><path stroke-width="2" d="M 0.6065 3.1004 C 0.1698 1.8752 2.2684 0.1963 4.8573 0.1963 C 7.0974 0.1567 9.1961 1.8356 9.1961 3.9067 C 9.3372 6.2675 7.2386 7.9464 4.6497 7.9464 C 2.7051 6.8504 0.6065 5.1715 0.6065 3.1004 M 0.3106 3.3934 C 0.263 1.6835 2.3617 0.0045 4.9505 0.0045 C 7.4075 -0.069 9.5061 1.6099 9.5061 3.681 C 9.6834 5.5004 7.5848 7.1793 4.9959 7.1793 C 2.4093 7.1434 0.3106 5.4645 0.3106 3.3934" fill="none" stroke="#1d1d1d"/></g></svg>