<svg xmlns="http://www.w3.org/2000/svg" direction="ltr" width="116.49917905447353" height="131.7007075291178" viewBox="341.1443097428127 -237.07181896966833 116.49917905447353 131.7007075291178" stroke-linecap="round" stroke-linejoin="round" data-color-mode="dark" class="tl-container tl-theme__force-sRGB tl-theme__dark" style="background-color: transparent;"><defs/><g transform="matrix(1, 0, 0, 1, 373.1443, -138.3808)" opacity="1"><path stroke-width="3.5" d="M 0 0 C 0 0 0.5912 -19.9323 5.5182 -29.0725 C 10.4451 -38.2127 16.0947 -43.2123 23.6493 -43.873 C 31.204 -44.5337 36.4429 -40.7553 41.7805 -32.244 C 47.118 -23.7327 57.9737 -9.7363 49.2694 -3.0188 C 40.5652 3.6987 0 0 0 0" transform="scale(1)" stroke="#e8e8e8" fill="none"/></g><g transform="matrix(1, 0, 0, 1, 385.5982, -205.0718)" opacity="1"><path stroke-width="3.5" d="M 0 11.0364 C 0 4.9411 5.647 0 12.613 0 C 19.5789 0 25.2259 4.9411 25.2259 11.0364 C 25.2259 17.1316 19.5789 22.0727 12.613 22.0727 C 5.647 22.0727 0 17.1316 0 11.0364" fill="none" stroke="#e8e8e8"/></g></svg>