<svg xmlns="http://www.w3.org/2000/svg" direction="ltr" width="120.72647675514486" height="103.92257264613697" viewBox="303.88510905248205 -1.1647108667356179 120.72647675514486 103.92257264613697" stroke-linecap="round" stroke-linejoin="round" data-color-mode="light" class="tl-container tl-theme__force-sRGB tl-theme__light" style="background-color: transparent;"><defs/><g transform="matrix(1, 0, 0, 1, 346.7989, 52.6562)" opacity="1"><path stroke-width="3.5" d="M 0 0 C 0 0 19.6516 -0.2739 26.4993 -0.5555 C 33.347 -0.8372 31.8172 -0.119 32.869 -1.3517 C 33.9208 -2.5845 31.3859 -4.3918 31.548 -6.4728 C 31.7101 -8.5538 32.535 -11.2727 33.6471 -11.3406 C 34.7592 -11.4084 36.3019 -8.5063 36.8862 -6.7985 C 37.4705 -5.0908 35.4548 -3.1602 36.4519 -3.1432 C 37.4491 -3.1263 39.7348 -6.2836 41.6725 -6.7171 C 43.6103 -7.1507 45.4081 -6.2195 45.7531 -5.2242 C 46.098 -4.229 44.9456 -3.15 43.3283 -1.9399 C 41.711 -0.7297 42.005 -2.9291 37.99 0.5845 C 33.9751 4.0981 31.9355 11.6219 24.0564 14.9253 C 16.1772 18.2287 7.4461 19.318 0.1701 16.4408 C -7.1059 13.5636 -10.0864 4.6643 -10.8683 1.1147 C -11.6501 -2.4349 -5.7873 -0.3609 -3.5829 -0.5972 C -1.3786 -0.8335 -0.2872 -0.0195 -0.2872 -0.0195" transform="scale(1)" stroke="#1d1d1d" fill="none"/></g><g transform="matrix(1, 0, 0, 1, 340.5139, 44.8439)" opacity="1"><path fill="#e8e8e8" d="M 0 0 L 5.5664 0 L 5.5664 5.5664 L 0 5.5664 Z"/><path stroke-width="3.5" d="M 0 0 L 5.5664 0 L 5.5664 5.5664 L 0 5.5664 Z" fill="none" stroke="#1d1d1d"/></g><g transform="matrix(1, 0, 0, 1, 347.4719, 44.5888)" opacity="1"><path fill="#e8e8e8" d="M 0 0 L 5.5664 0 L 5.5664 5.5664 L 0 5.5664 Z"/><path stroke-width="3.5" d="M 0 0 L 5.5664 0 L 5.5664 5.5664 L 0 5.5664 Z" fill="none" stroke="#1d1d1d"/></g><g transform="matrix(1, 0, 0, 1, 354.7545, 44.7048)" opacity="1"><path fill="#e8e8e8" d="M 0 0 L 5.5664 0 L 5.5664 5.5664 L 0 5.5664 Z"/><path stroke-width="3.5" d="M 0 0 L 5.5664 0 L 5.5664 5.5664 L 0 5.5664 Z" fill="none" stroke="#1d1d1d"/></g><g transform="matrix(1, 0, 0, 1, 362.014, 44.3569)" opacity="1"><path fill="#e8e8e8" d="M 0 0 L 5.5664 0 L 5.5664 5.5664 L 0 5.5664 Z"/><path stroke-width="3.5" d="M 0 0 L 5.5664 0 L 5.5664 5.5664 L 0 5.5664 Z" fill="none" stroke="#1d1d1d"/></g><g transform="matrix(1, 0, 0, 1, 368.9023, 44.4496)" opacity="1"><path fill="#e8e8e8" d="M 0 0 L 5.5664 0 L 5.5664 5.5664 L 0 5.5664 Z"/><path stroke-width="3.5" d="M 0 0 L 5.5664 0 L 5.5664 5.5664 L 0 5.5664 Z" fill="none" stroke="#1d1d1d"/></g><g transform="matrix(1, 0, 0, 1, 347.2747, 37.8396)" opacity="1"><path fill="#e8e8e8" d="M 0 0 L 5.5664 0 L 5.5664 5.5664 L 0 5.5664 Z"/><path stroke-width="3.5" d="M 0 0 L 5.5664 0 L 5.5664 5.5664 L 0 5.5664 Z" fill="none" stroke="#1d1d1d"/></g><g transform="matrix(1, 0, 0, 1, 354.5806, 37.9324)" opacity="1"><path fill="#e8e8e8" d="M 0 0 L 5.5664 0 L 5.5664 5.5664 L 0 5.5664 Z"/><path stroke-width="3.5" d="M 0 0 L 5.5664 0 L 5.5664 5.5664 L 0 5.5664 Z" fill="none" stroke="#1d1d1d"/></g><g transform="matrix(1, 0, 0, 1, 361.9792, 37.9324)" opacity="1"><path fill="#e8e8e8" d="M 0 0 L 5.5664 0 L 5.5664 5.5664 L 0 5.5664 Z"/><path stroke-width="3.5" d="M 0 0 L 5.5664 0 L 5.5664 5.5664 L 0 5.5664 Z" fill="none" stroke="#1d1d1d"/></g><g transform="matrix(1, 0, 0, 1, 361.7356, 30.8353)" opacity="1"><path fill="#e8e8e8" d="M 0 0 L 5.5664 0 L 5.5664 5.5664 L 0 5.5664 Z"/><path stroke-width="3.5" d="M 0 0 L 5.5664 0 L 5.5664 5.5664 L 0 5.5664 Z" fill="none" stroke="#1d1d1d"/></g></svg>