<svg xmlns="http://www.w3.org/2000/svg" direction="ltr" width="115.88250276832002" height="115.88250276832002" viewBox="224.36573817983026 -5.233885830429813 115.88250276832002 115.88250276832002" stroke-linecap="round" stroke-linejoin="round" data-color-mode="light" class="tl-container tl-theme__force-sRGB tl-theme__light" style="background-color: transparent;"><defs/><g transform="matrix(1, 0, 0, 1, 256.3657, 26.7661)" opacity="1"><path fill="#e8e8e8" d="M 0 25.9413 C 0 11.6143 11.6143 0 25.9413 0 C 40.2682 0 51.8825 11.6143 51.8825 25.9413 C 51.8825 40.2682 40.2682 51.8825 25.9413 51.8825 C 11.6143 51.8825 0 40.2682 0 25.9413"/><path stroke-width="2" d="M 0 25.9413 C 0 11.6143 11.6143 0 25.9413 0 C 40.2682 0 51.8825 11.6143 51.8825 25.9413 C 51.8825 40.2682 40.2682 51.8825 25.9413 51.8825 C 11.6143 51.8825 0 40.2682 0 25.9413" fill="none" stroke="#1d1d1d"/></g><g transform="matrix(1, 0, 0, 1, 272.1135, 37.1742)" opacity="1"><path stroke-width="2" d="M 0 0 C 0 0 1.6427 0.3229 2.5224 0.8877 C 3.402 1.4524 3.3855 2.4897 4.2223 2.7109 C 5.059 2.9321 4.7095 2.0898 6.5388 1.9495 C 8.368 1.8092 11.236 1.9777 13.0027 2.0374 C 14.7694 2.0972 14.274 2.4538 15.0189 2.2364 C 15.7638 2.0191 15.8022 1.5662 16.5783 0.9941 C 17.3544 0.4221 18.1692 -0.6269 18.7442 -0.5093 C 19.3192 -0.3916 19.2259 0.7098 19.3383 1.5589 C 19.4506 2.408 18.8817 2.7523 19.2834 3.5666 C 19.6852 4.3808 20.6688 3.9377 21.2666 5.4675 C 21.8645 6.9973 22.1131 8.5883 22.1531 10.9094 C 22.1931 13.2305 22.024 14.96 21.4585 16.6087 C 20.8931 18.2574 20.4327 18.1146 19.4388 18.8231 C 18.4449 19.5315 17.8798 19.6256 16.6879 20.0093 C 15.4961 20.3929 14.1728 20.3742 13.7177 20.6646 C 13.2627 20.955 14.1553 20.9081 14.5037 21.4031 C 14.8521 21.898 15.1674 21.6294 15.3902 23.0404 C 15.613 24.4515 15.5425 26.4585 15.573 28.1762 C 15.6034 29.894 15.7459 30.5258 15.5364 31.2857 C 15.327 32.0456 16.296 31.6858 14.5677 31.8239 C 12.8393 31.9619 8.9578 32.1092 7.2404 31.9482 C 5.523 31.7873 6.5684 32.0003 6.3242 31.0513 C 6.0801 30.1023 6.4739 28.0572 6.0683 27.393 C 5.6628 26.7287 5.3125 27.7277 4.3776 27.8629 C 3.4428 27.9981 2.7082 28.317 1.5811 28.042 C 0.4539 27.7669 -0.1493 27.4004 -1.0327 26.5426 C -1.9162 25.6848 -1.9912 24.8055 -2.6595 23.9244 C -3.3278 23.0432 -3.5551 22.885 -4.2405 22.3131 C -4.926 21.7412 -6.0771 21.3689 -5.9495 21.1793 C -5.822 20.9897 -4.4545 21.0923 -3.6282 21.4031 C -2.8019 21.7139 -2.7143 22.0387 -1.9832 22.6712 C -1.2521 23.3037 -0.9794 23.8408 -0.1188 24.4391 C 0.7418 25.0374 1.1519 25.3783 2.1477 25.5431 C 3.1435 25.7078 3.8784 25.4986 4.6609 25.2298 C 5.4435 24.9609 5.6201 24.7763 5.9038 24.2526 C 6.1875 23.7289 5.8589 23.3142 6.0226 22.7159 C 6.1864 22.1176 6.3699 21.7848 6.6898 21.3807 C 7.0097 20.9767 8.0607 21.078 7.558 20.7765 C 7.0554 20.475 5.6137 20.3245 4.2771 19.9336 C 2.9405 19.5426 2.1286 19.6003 1.1424 18.8998 C 0.1561 18.1994 0.1257 18.2249 -0.457 16.5714 C -1.0396 14.9179 -1.6028 13.2308 -1.6542 10.963 C -1.7056 8.6953 -1.1873 7.0867 -0.7037 5.6861 C -0.2201 4.2855 0.5453 4.9502 0.6672 4.2401 C 0.789 3.5299 0.0202 3.1606 -0.1188 2.2773 C -0.2578 1.3939 0 0 0 0" transform="scale(1)" stroke="#1d1d1d" fill="none"/></g></svg>