<svg xmlns="http://www.w3.org/2000/svg" direction="ltr" width="128.16695392086172" height="126.80639194138413" viewBox="560.0048483136009 -147.79288274239332 128.16695392086172 126.80639194138413" stroke-linecap="round" stroke-linejoin="round" data-color-mode="light" class="tl-container tl-theme__force-sRGB tl-theme__light" style="background-color: transparent;"><defs/><g transform="matrix(1, 0, 0, 1, 623.9518, -115.7929)" opacity="1"><path stroke-width="2" d="M 0 0 L -22.7005 10.3708 Q -26.3089 12.0968 -27.0994 16.018 L -31.0771 35.7208 Q -31.8676 39.6419 -29.3807 42.7749 L -16.0319 59.047 Q -13.545 62.1799 -9.5451 62.1624 L 13.5847 62.7389 Q 17.5846 62.7214 19.6786 59.3133 L 30.4403 41.4526 Q 32.5343 38.0445 31.6559 34.1422 L 27.693 15.2883 Q 26.8145 11.3859 23.1424 9.7999 L 0 0 M 0 0 L -22.6113 10.5644 Q -26.2197 12.2905 -27.0102 16.2116 L -31.4288 35.8687 Q -32.2193 39.7898 -29.7324 42.9228 L -16.3523 59.759 Q -13.8654 62.892 -9.8654 62.8744 L 13.6705 62.2819 Q 17.6704 62.2644 19.7644 58.8563 L 30.7397 41.5779 Q 32.8337 38.1698 31.9553 34.2675 L 26.4888 14.8705 Q 25.6104 10.9682 21.9382 9.3822 L 0 0" transform="scale(1)" stroke="#1d1d1d" fill="none"/></g><g transform="matrix(0.9999, 0.0101, -0.0101, 0.9999, 619.1077, -100.2699)" opacity="1"><path stroke-width="2" d="M 0 0 C 0.491 0.3885 3.146 -0.1189 3.9284 -0.7175 C 4.5109 -1.6133 4.0748 -1.3663 4.0468 -2.7819 C 4.2377 -3.6858 3.4316 -6.2113 3.813 -7.298 C 3.3295 -9.3859 4.7773 -9.5492 5.2316 -8.4877 C 5.6027 -7.0706 4.8892 -4.2897 5.0455 -2.8485 C 5.4014 -1.0827 5.1467 -1.3897 6.0983 -0.8896 C 7.8207 -0.2211 8.7315 -0.5256 10.5836 0.045 C 11.9769 0.6588 13.4577 1.1203 15.3004 2.0607 C 17.2549 2.6015 18.0242 3.7378 19.0817 4.2025 C 20.3276 4.4766 19.6866 4.3114 20.6764 3.701 C 21.4608 3.2623 22.8989 1.599 23.816 1.2537 C 24.2511 1.0068 24.8641 1.555 24.3908 2.3138 C 23.9974 3.3118 21.9501 4.3775 21.1422 5.2335 C 20.9645 5.4955 20.8643 4.8767 21.2232 6.0678 C 20.949 6.9088 22.099 8.0883 22.8617 10.0066 C 23.9727 12.6962 24.2779 13.6652 24.5995 15.6969 C 25.004 17.7824 24.5841 19.3885 24.8363 20.5838 C 24.7709 21.6561 24.4599 21.0779 25.5754 21.3652 C 26.661 21.6072 28.9973 21.335 29.8432 21.7945 C 31.0525 22.1446 30.9142 23.2243 29.9694 23.4161 C 28.5201 23.601 26.3416 22.7012 25.1671 22.5989 C 24.0492 22.8288 24.5869 22.3483 23.884 23.2503 C 23.9541 23.1782 23.6515 24.7239 22.6226 26.2866 C 21.3358 28.8353 20.922 29.3514 19.4606 30.7633 C 18.1664 31.8922 16.2661 32.7912 15.5173 33.7665 C 14.4777 35.0237 15.0751 34.35 15.7425 35.4438 C 15.8308 36.6392 17.6647 38.3926 17.8511 39.4003 C 18.7579 39.4486 17.5568 40.1051 16.7784 39.4231 C 15.5495 39.1579 15.1355 36.7187 14.3849 35.5839 C 14.3002 34.9362 14.7282 34.8588 13.3908 34.8801 C 11.7936 33.8564 10.7143 34.8853 8.3714 35.1283 C 6.1482 35.6941 4.2074 35.7096 2.005 35.3243 C -0.8133 35.3914 -1.5931 34.2227 -2.6965 34.0539 C -3.3076 34.2036 -2.7103 34.2525 -3.4149 35.285 C -4.666 36.0003 -5.3703 38.3811 -6.1331 39.0111 C -6.6681 39.661 -7.6175 39.0069 -7.3948 38.0119 C -7.2507 37.0516 -5.4921 35.3717 -4.9148 34.2898 C -4.4301 33.32 -4.1738 33.7755 -4.7952 32.9655 C -5.3355 32.1269 -6.6325 31.8386 -7.9093 30.4855 C -8.8511 29.2115 -9.6304 27.9443 -10.5075 26.5213 C -11.7484 24.7451 -11.5305 23.9976 -12.1485 23.3812 C -12.4719 22.963 -12.2931 23.1978 -13.543 23.4075 C -14.862 23.0311 -16.9706 24.1415 -17.9223 23.9999 C -18.986 24.6371 -19.14 23.422 -18.2923 22.9207 C -17.2121 22.0773 -14.8874 22.3653 -13.7329 22.0303 C -12.5867 22.138 -12.7835 22.8279 -12.5264 21.4131 C -12.1142 19.574 -12.5904 17.366 -12.352 15.2577 C -12.1752 12.5866 -11.9553 11.9921 -11.2885 10.3061 C -10.5477 8.7832 -9.3685 7.8352 -9.1389 6.7652 C -9.5699 5.765 -9.7026 6.1624 -10.773 5.4027 C -11.6476 4.4261 -14.0943 3.7971 -14.7417 2.9718 C -15.054 1.9853 -14.3457 0.8074 -13.3498 1.0632 C -12.0593 1.9353 -10.5139 3.9981 -9.3316 4.6546 C -8.3598 5.5829 -8.6907 5.6233 -7.5908 5.1024 C -6.3067 3.8792 -5.7156 2.7365 -4.0783 1.7237 C -2.8934 1.1725 0 0 0 0 M 0 0 C 0.4231 0.2537 3.078 -0.2537 3.8605 -0.8522 C 3.7876 -1.7236 3.3515 -1.4766 3.3235 -2.8922 C 3.2404 -4.434 2.4343 -6.9595 2.8158 -8.0462 C 3.2493 -8.9259 4.6972 -9.0892 5.1515 -8.0277 C 5.8936 -7.1029 5.1801 -4.322 5.3364 -2.8808 C 5.8795 -1.4043 5.6248 -1.7113 6.5764 -1.2112 C 7.2146 -0.3072 8.1254 -0.6116 9.9775 -0.0411 C 12.3175 0.3096 13.7983 0.7712 15.641 1.7116 C 17.0627 2.115 17.8321 3.2513 18.8895 3.7159 C 20.1659 4.7031 19.5248 4.5379 20.5147 3.9274 C 21.0891 2.9588 22.5273 1.2954 23.4443 0.9501 C 24.7421 1.3313 25.3551 1.8795 24.8818 2.6383 C 24.6412 2.5709 22.5939 3.6366 21.7861 4.4926 C 20.7215 5.6102 20.6213 4.9914 20.9801 6.1824 C 20.7467 7.2113 21.8967 8.3907 22.6595 10.309 C 24.4493 12.7744 24.7546 13.7434 25.0762 15.7751 C 24.5532 17.4478 24.1333 19.0539 24.3856 20.2492 C 25.1126 21.1716 24.8016 20.5934 25.9172 20.8807 C 27.0523 21.9697 29.3886 21.6976 30.2345 22.1571 C 31.1345 22.6592 30.9961 23.7389 30.0514 23.9307 C 29.127 23.1958 26.9485 22.296 25.774 22.1937 C 24.6763 22.7735 25.214 22.293 24.5111 23.195 C 23.9151 24.1106 23.6124 25.6563 22.5836 27.219 C 20.8121 29.0041 20.3983 29.5202 18.937 30.9321 C 18.0651 32.2413 16.1648 33.1403 15.4159 34.1156 C 14.6943 35.113 15.2917 34.4393 15.9591 35.5332 C 16.1847 36.6644 18.0186 38.4178 18.205 39.4255 C 18.1479 39.9896 16.9468 40.6461 16.1684 39.964 C 16.2756 39.5176 15.8616 37.0784 15.111 35.9436 C 14.159 34.5011 14.587 34.4237 13.2495 34.445 C 11.6223 33.8677 10.543 34.8966 8.2002 35.1395 C 6.3972 35.8499 4.4564 35.8654 2.2539 35.48 C -0.9505 35.6763 -1.7303 34.5076 -2.8337 34.3388 C -3.9485 34.1879 -3.3511 34.2368 -4.0558 35.2693 C -3.9142 36.2079 -4.6185 38.5886 -5.3813 39.2186 C -6.4444 38.9824 -7.3938 38.3283 -7.1711 37.3334 C -7.4669 37.2877 -5.7082 35.6078 -5.1309 34.5258 C -3.7917 33.2679 -3.5353 33.7234 -4.1568 32.9134 C -5.6036 31.7535 -6.9006 31.4651 -8.1774 30.1121 C -8.4642 28.3852 -9.2435 27.1179 -10.1206 25.695 C -11.9197 24.8236 -11.7018 24.076 -12.3198 23.4596 C -12.1653 22.6674 -11.9866 22.9022 -13.2365 23.1119 C -14.6593 23.3271 -16.7679 24.4375 -17.7196 24.296 C -18.3894 23.6946 -18.5433 22.4795 -17.6956 21.9782 C -17.581 21.7378 -15.2563 22.0258 -14.1018 21.6908 C -13.1364 21.1672 -13.3333 21.8571 -13.0761 20.4423 C -13.0101 19.5422 -13.4863 17.3342 -13.2479 15.2259 C -13.073 12.8509 -12.8532 12.2564 -12.1863 10.5704 C -11.3024 8.706 -10.1232 7.7581 -9.8936 6.688 C -9.2015 6.3669 -9.3342 6.7643 -10.4047 6.0047 C -11.0769 5.1082 -13.5236 4.4791 -14.171 3.6538 C -15.6119 2.9635 -14.9036 1.7856 -13.9077 2.0413 C -12.7793 2.118 -11.2339 4.1808 -10.0516 4.8373 C -8.1557 5.6989 -8.4866 5.7393 -7.3867 5.2184 C -6.3776 4.7929 -5.7865 3.6502 -4.1491 2.6374 C -2.8934 1.1725 0 0 0 0" transform="scale(1)" stroke="#1d1d1d" fill="none"/></g><g transform="matrix(1, 0, 0, 1, 613.4275, -93.3352)" opacity="1"><path stroke-width="2" d="M 0 0 C 0.494 -0.4256 2.1783 -2.1355 3.4118 -3.068 C 4.4234 -3.7556 4.8353 -4.2185 6.1927 -4.6566 C 7.745 -5.3213 9.0917 -6.1133 9.9002 -5.1528 C 9.8584 -3.6675 9.4772 -1.7896 9.4182 0.2523 C 9.6176 1.9377 10.1463 4.2661 9.0251 4.8166 C 7.6982 5.1889 5.9951 3.4132 4.0889 2.36 C 2.5129 1.724 0 0 0 0 M 0 0 C 0.3971 -0.6086 2.0814 -2.3185 3.3148 -3.251 C 4.072 -3.315 4.4839 -3.7779 5.8413 -4.216 C 6.7475 -4.716 8.0943 -5.508 8.9028 -4.5475 C 9.7508 -4.2078 9.3696 -2.3299 9.3106 -0.288 C 9.2506 1.8957 9.7794 4.2241 8.6581 4.7746 C 8.3581 5.7713 6.655 3.9957 4.7488 2.9424 C 2.5129 1.724 0 0 0 0" transform="scale(1)" stroke="#1d1d1d" fill="none"/></g><g transform="matrix(0.5503, 0.835, -0.835, 0.5503, 626.1482, -98.7489)" opacity="1"><path stroke-width="2" d="M 0 0 C 0.3774 0.2688 2.0327 -1.4118 3.2449 -2.3283 C 4.1572 -3.3584 4.6381 -3.7632 5.8961 -4.2439 C 7.0309 -4.831 8.0029 -5.7321 8.8603 -4.8557 C 9.749 -4.2482 9.7919 -2.5235 9.9196 -0.4124 C 9.537 2.3362 10.159 5.0372 8.9942 5.6459 C 8.9788 6.3977 6.9509 4.3793 4.9678 3.29 C 2.36 1.6402 0 0 0 0 M 0 0 C 0.4718 0.1196 2.1271 -1.5609 3.3393 -2.4774 C 3.8003 -3.5893 4.2812 -3.9942 5.5392 -4.4749 C 7.3511 -5.3875 8.3231 -6.2886 9.1805 -5.4122 C 9.6515 -3.4556 9.6944 -1.7308 9.8221 0.3802 C 9.8263 2.2948 10.4483 4.9958 9.2835 5.6045 C 7.7299 5.6486 5.702 3.6302 3.7188 2.5409 C 2.36 1.6402 0 0 0 0" transform="scale(1)" stroke="#1d1d1d" fill="none"/></g><g transform="matrix(-0.3051, 0.9523, -0.9523, -0.3051, 638.146, -91.4493)" opacity="1"><path stroke-width="2" d="M 0 0 C -0.1778 -0.3992 1.5148 -2.1075 2.7293 -3.032 C 3.9373 -3.5568 4.2928 -4.0004 5.6452 -4.437 C 7.5048 -4.2956 8.9015 -5.1023 9.7215 -4.1499 C 9.8223 -3.66 9.4915 -1.8843 9.3692 0.2502 C 9.8751 2.462 10.1709 5.0949 9.0433 5.7105 C 7.4555 6.4446 5.9606 4.5501 4.1248 3.4007 C 2.5174 1.9395 0 0 0 0 M 0 0 C -0.254 -0.5511 1.4386 -2.2594 2.6531 -3.1839 C 4.2474 -3.6576 4.6029 -4.1012 5.9553 -4.5377 C 7.169 -4.9113 8.5657 -5.7181 9.3857 -4.7656 C 9.7412 -4.2009 9.4104 -2.4253 9.2881 -0.2908 C 10.1694 2.5866 10.4652 5.2195 9.3376 5.8351 C 7.913 5.5263 6.418 3.6319 4.5823 2.4824 C 2.5174 1.9395 0 0 0 0" transform="scale(1)" stroke="#1d1d1d" fill="none"/></g><g transform="matrix(-0.9569, 0.2904, -0.2904, -0.9569, 639.3346, -77.4126)" opacity="1"><path stroke-width="2" d="M 0 0 C -0.0373 -0.4585 0.7282 -1.5985 1.7799 -2.509 C 2.3008 -3.1486 3.0981 -3.9718 4.48 -4.5579 C 5.9069 -5.565 7.0304 -6.4325 7.9274 -5.4725 C 9.9443 -3.8551 9.8595 -1.9287 9.9505 0.2864 C 9.3372 3.0788 9.8436 5.7281 8.7798 6.3947 C 7.4105 6.8776 5.686 5.0815 3.8344 3.8797 C 2.3959 2.2355 0 0 0 0 M 0 0 C -0.1136 -0.6531 0.6519 -1.7931 1.7036 -2.7036 C 3.3188 -2.6726 4.1162 -3.4957 5.4981 -4.0819 C 6.8886 -4.8054 8.012 -5.6729 8.909 -4.7129 C 9.8744 -4.3153 9.7896 -2.3889 9.8806 -0.1738 C 8.9595 2.9535 9.4659 5.6028 8.4021 6.2694 C 8.237 6.2931 6.5124 4.497 4.6609 3.2952 C 2.3959 2.2355 0 0 0 0" transform="scale(1)" stroke="#1d1d1d" fill="none"/></g><g transform="matrix(-0.8061, -0.5918, 0.5918, -0.8061, 629.7938, -68.4826)" opacity="1"><path stroke-width="2" d="M 0 0 C -0.3141 0.258 0.9748 -1.1578 2.1063 -2.1176 C 3.558 -3.5243 4.1285 -4.1509 5.4375 -4.7961 C 6.2246 -5.2835 7.3814 -6.4634 8.1876 -5.5037 C 9.2271 -4.6636 8.8368 -2.443 9.0185 -0.1515 C 9.2773 2.9103 10.3226 5.5281 9.37 6.1463 C 8.2104 5.5932 6.3112 3.5659 4.3163 2.4145 C 2.7338 1.8147 0 0 0 0 M 0 0 C -0.243 0.1088 1.0459 -1.307 2.1774 -2.2668 C 3.2483 -3.0486 3.8188 -3.6751 5.1277 -4.3203 C 7.2375 -4.6805 8.3944 -5.8603 9.2006 -4.9007 C 9.3351 -4.0376 8.9448 -1.817 9.1265 0.4745 C 8.9052 2.8683 9.9505 5.4861 8.9979 6.1042 C 9.0344 6.3442 7.1351 4.3169 5.1403 3.1656 C 2.7338 1.8147 0 0 0 0" transform="scale(1)" stroke="#1d1d1d" fill="none"/></g><g transform="matrix(0.0472, -0.9989, 0.9989, 0.0472, 615.9207, -70.8738)" opacity="1"><path stroke-width="2" d="M 0 0 C 0.0967 0.3969 0.9695 -1.2392 1.982 -2.2605 C 3.1315 -3.429 3.9266 -4.1486 5.0935 -4.6523 C 6.3837 -5.8864 6.9212 -6.4278 7.8437 -5.5561 C 9.0588 -4.0569 9.522 -2.5131 9.9373 -0.5711 C 10.0366 0.6442 10.8418 2.8733 9.8138 3.6664 C 9.0201 5.2801 6.8961 4.2143 4.9211 3.3296 C 2.3781 2.2043 0 0 0 0 M 0 0 C 0.0021 0.5487 0.875 -1.0874 1.8875 -2.1086 C 2.7746 -3.995 3.5696 -4.7145 4.7366 -5.2182 C 5.3967 -5.1323 5.9343 -5.6737 6.8567 -4.802 C 8.9669 -4.6804 9.4301 -3.1367 9.8454 -1.1946 C 9.7527 0.6029 10.5579 2.832 9.5299 3.6251 C 7.8838 4.531 5.7598 3.4651 3.7848 2.5805 C 2.3781 2.2043 0 0 0 0" transform="scale(1)" stroke="#1d1d1d" fill="none"/></g><g transform="matrix(0.8033, -0.5956, 0.5956, 0.8033, 609.256, -81.9314)" opacity="1"><path stroke-width="2" d="M 0 0 C 0.5109 -0.1039 1.3837 -1.7401 2.3962 -2.7613 C 2.5916 -4.1653 3.3144 -4.7873 4.5536 -5.3886 C 6.6951 -5.5136 7.4589 -6.3857 8.4298 -5.5538 C 8.2294 -4.2438 8.3583 -2.5853 8.9446 -0.441 C 10.4467 1.2438 11.8863 3.9622 10.9887 4.7576 C 9.8341 5.9168 7.5134 4.2707 5.295 3.2812 C 2.993 1.9199 0 0 0 0 M 0 0 C 0.5883 -0.2845 1.4611 -1.9206 2.4736 -2.9418 C 2.9069 -3.2716 3.6296 -3.8936 4.8689 -4.4948 C 5.6924 -4.95 6.4563 -5.8221 7.4271 -4.9902 C 8.1701 -4.8695 8.299 -3.211 8.8853 -1.0667 C 10.1525 1.3691 11.5921 4.0875 10.6945 4.8829 C 9.6664 5.4984 7.3456 3.8523 5.1273 2.8628 C 2.993 1.9199 0 0 0 0" transform="scale(1)" stroke="#1d1d1d" fill="none"/></g><g transform="matrix(1, 0, 0, 1, 623.126, -85.2696)" opacity="1"><path fill="#e8e8e8" d="M 0 2.144 C 0 0.9599 0.9599 0 2.144 0 C 3.3282 0 4.2881 0.9599 4.2881 2.144 C 4.2881 3.3282 3.3282 4.2881 2.144 4.2881 C 0.9599 4.2881 0 3.3282 0 2.144"/><path stroke-width="2" d="M -0.0956 2.3438 C 0.2568 0.5116 1.2167 -0.4483 2.4008 -0.4483 C 3.7993 -0.4494 4.7592 0.5105 4.7592 1.6946 C 4.2774 3.3349 3.3175 4.2949 2.1334 4.2949 C 0.8643 4.4879 -0.0956 3.5279 -0.0956 2.3438 M -0.4872 2.3034 C 0.1858 0.3585 1.1457 -0.6015 2.3298 -0.6015 C 2.8229 0.36 3.7828 1.3199 3.7828 2.504 C 4.6134 2.7791 3.6535 3.739 2.4693 3.739 C 0.4727 4.4475 -0.4872 3.4875 -0.4872 2.3034" fill="none" stroke="#1d1d1d"/></g></svg>