<svg xmlns="http://www.w3.org/2000/svg" direction="ltr" width="135.8035666020338" height="142.18557382862974" viewBox="744.2176038391553 -148.1761646761555 135.8035666020338 142.18557382862974" stroke-linecap="round" stroke-linejoin="round" data-color-mode="dark" class="tl-container tl-theme__force-sRGB tl-theme__dark" style="background-color: transparent;"><defs/><g transform="matrix(1, 0, 0, 1, 812.5583, -116.1762)" opacity="1"><path stroke-width="2" d="M 0 0 L -32.5697 17.3065 Q -36.0787 19.2267 -36.0787 23.2267 L -36.4659 53.3999 Q -36.4659 57.3999 -32.9738 59.3504 L -3.3763 75.7597 Q 0.1158 77.7103 3.5061 75.5874 L 31.8442 57.7196 Q 35.2344 55.5968 35.2344 51.5968 L 35.5584 23.0198 Q 35.5584 19.0198 32.0131 17.1676 L 0 0 M 0 0 L -32.6616 17.488 Q -36.1706 19.4082 -36.1706 23.4082 L -36.1559 54.2558 Q -36.1559 58.2558 -32.6637 60.2064 L -3.0299 76.5027 Q 0.4623 78.4533 3.8525 76.3304 L 31.7582 58.3428 Q 35.1484 56.2199 35.1484 52.2199 L 35.9413 22.8945 Q 35.9413 18.8945 32.396 17.0423 L 0 0" transform="scale(1)" stroke="#e8e8e8" fill="none"/></g><g transform="matrix(1, 0, 0, 1, 800.6005, -85.6384)" opacity="1"><path stroke-width="2" d="M 0 0 C 0.0373 0.2811 0.2878 6.816 0.2289 11.8553 C 0.4808 17.2506 1.4205 22.3196 0.0652 24.8261 C -1.3802 26.4839 -4.5617 27.2697 -6.0558 23.3936 C -7.6181 20.0267 -7.4281 12.5654 -7.2647 5.8815 C -6.9154 -0.4507 -7.0336 -4.8037 -5.1538 -7.8284 C -3.3985 -11.6187 -1.7559 -11.4516 1.8197 -9.0509 C 4.7562 -6.5503 7.0118 -1.9202 11.2454 3.0293 C 16.0489 7.8336 19.675 16.9457 22.0717 14.6614 C 24.7986 12.8338 22.1872 -2.7169 23.6495 -7.6241 C 24.0407 -12.9711 26.9075 -11.7739 28.35 -8.8761 C 30.7453 -5.5219 30.5339 -0.2974 30.4553 6.3019 C 29.764 12.5191 30.4336 19.1311 28.3128 22.8749 C 27.0512 26.1754 24.6392 25.7735 20.5219 23.4468 C 15.671 21.3581 12.8176 16.4932 8.6756 11.5014 C 4.6269 6.7855 0 0 0 0 M 0 0 C 0.1136 0.0864 0.3641 6.6212 0.3052 11.6606 C -0.5008 16.0662 0.4389 21.1352 -0.9164 23.6416 C -1.7108 27.0316 -4.8923 27.8174 -6.3864 23.9413 C -7.5379 19.0691 -7.3479 11.6079 -7.1845 4.924 C -7.2823 -0.5754 -7.4005 -4.9284 -5.5208 -7.9531 C -3.9003 -11.0338 -2.2576 -10.8667 1.318 -8.466 C 5.3231 -6.6204 7.5788 -1.9903 11.8124 2.9592 C 16.3853 7.526 20.0115 16.6382 22.4082 14.3538 C 23.8236 12.0549 21.2122 -3.4958 22.6745 -8.403 C 24.1348 -12.6507 27.0016 -11.4535 28.4442 -8.5558 C 29.9301 -5.9254 29.7187 -0.7009 29.6401 5.8984 C 30.3831 12.1019 31.0527 18.7139 28.9319 22.4577 C 26.0145 27.078 23.6025 26.6761 19.4852 24.3494 C 15.3743 21.5214 12.5209 16.6565 8.3789 11.6647 C 4.6269 6.7855 0 0 0 0" transform="scale(1)" stroke="#e8e8e8" fill="none"/></g></svg>