<svg xmlns="http://www.w3.org/2000/svg" direction="ltr" width="154.18513729066922" height="152.83019169789364" viewBox="843.6389356168118 -147.50970034384244 154.18513729066922 152.83019169789364" stroke-linecap="round" stroke-linejoin="round" data-color-mode="light" class="tl-container tl-theme__force-sRGB tl-theme__light" style="background-color: transparent;"><defs/><g transform="matrix(1, 0, 0, 1, 932.5703, -111.7514)" opacity="1"><path stroke-width="2" d="M 0 0 C -0.2881 -0.0634 -5.951 -2.4584 -9.219 -2.6969 C -11.9183 -2.3729 -12.6745 -1.2899 -15.4057 -0.6458 C -18.5757 -1.0011 -16.7783 0.3335 -22.1991 -0.0422 C -27.0417 -0.4057 -34.3446 -4.5813 -41.2861 -3.4363 C -48.1092 -1.5048 -52.0547 -0.039 -54.8217 6.2525 C -57.6904 12.8379 -56.3109 18.8022 -54.5513 27.8432 C -53.144 35.8186 -50.7304 41.8461 -46.8294 48.8779 C -42.9114 56.7304 -40.6043 61.4995 -36.1619 61.3509 C -31.8256 60.9905 -29.0368 51.3316 -25.595 48.7733 C -22.2337 46.7356 -21.4652 48.9794 -19.8278 49.3798 C -18.7112 49.2927 -18.2396 49.7632 -18.3367 50.7284 C -18.2383 51.0398 -19.4053 51.9012 -20.6192 52.8716 C -21.9163 54.5035 -22.2206 54.368 -24.0514 55.3938 C -24.7494 55.7066 -28.892 56.883 -28.3573 57.7437 C -27.8031 59.3494 -23.1929 59.4222 -20.3324 59.5574 C -17.9955 59.3409 -17.0553 58.6666 -15.1311 58.7859 C -13.8401 59.4501 -13.4622 56.9298 -12.253 60.3232 C -10.1054 63.5609 -10.5941 70.3148 -9.0218 75.4635 C -8.0848 80.6588 -8.0693 83.5842 -4.4026 84.9277 C -0.8973 86.0635 4.4181 84.1476 7.7815 81.7512 C 11.717 79.5891 11.2835 77.9001 12.1524 73.4514 C 13.3083 68.0701 12.394 63.36 12.8114 59.6993 C 12.9047 56.742 11.817 56.6707 14.1189 55.651 C 16.526 54.7918 20.2842 56.7657 23.6416 55.6685 C 27.2998 53.709 30.8016 50.905 30.6406 49.6824 C 29.5465 49.1569 24.7709 50.4939 22.2364 49.6352 C 19.5421 49.1777 17.0303 49.8015 17.3821 46.6587 C 18.4718 42.8682 21.7899 39.8495 24.5033 34.3034 C 27.3233 29.197 29.5572 26.2701 31.2508 19.8296 C 32.0575 13.5786 33.7846 8.6158 31.8524 4.018 C 30.8658 -0.8798 26.8775 -0.8953 22.0351 -2.3504 C 16.4486 -3.3109 13.319 -3.2966 8.8106 -2.7718 C 4.6515 -2.9102 0 0 0 0 M 0 0 C -0.1964 -0.2149 -5.8593 -2.6098 -9.1273 -2.8483 C -12.2752 -3.2705 -13.0314 -2.1875 -15.7627 -1.5435 C -18.2398 -0.4586 -16.4424 0.876 -21.8632 0.5003 C -27.0915 0.218 -34.3944 -3.9576 -41.3359 -2.8126 C -48.4033 -1.6301 -52.3487 -0.1643 -55.1157 6.1272 C -58.5645 11.9203 -57.185 17.8845 -55.4254 26.9256 C -53.8542 35.9096 -51.4406 41.9371 -47.5397 48.9689 C -42.5857 56.4228 -40.2786 61.1919 -35.8363 61.0433 C -31.517 60.1965 -28.7283 50.5376 -25.2865 47.9793 C -22.3271 45.7226 -21.5586 47.9664 -19.9212 48.3668 C -17.5261 49.0706 -17.0544 49.541 -17.1516 50.5063 C -17.6191 51.4559 -18.7861 52.3173 -20.0001 53.2877 C -20.8795 54.2751 -21.1838 54.1396 -23.0146 55.1653 C -25.213 55.8698 -29.3556 57.0462 -28.8209 57.907 C -28.4238 59.6716 -23.8136 59.7444 -20.9531 59.8796 C -17.4667 59.4398 -16.5264 58.7655 -14.6022 58.8848 C -13.1309 58.9143 -12.753 56.3939 -11.5439 59.7873 C -10.7966 62.9697 -11.2853 69.7236 -9.713 74.8723 C -7.5999 80.7545 -7.5843 83.6799 -3.9176 85.0234 C -0.9899 86.4791 4.3256 84.5633 7.689 82.1668 C 11.3783 78.9199 10.9448 77.2308 11.8138 72.7821 C 12.3881 68.3122 11.4738 63.6021 11.8912 59.9415 C 12.8708 56.2278 11.7831 56.1565 14.085 55.1368 C 16.0089 54.665 19.7671 56.639 23.1245 55.5417 C 27.1564 54.2046 30.6581 51.4005 30.4971 50.178 C 29.8151 49.3664 25.0396 50.7034 22.5051 49.8446 C 19.7297 49.1147 17.2179 49.7384 17.5697 46.5957 C 18.0336 43.6605 21.3517 40.6418 24.0651 35.0958 C 26.8318 28.7779 29.0657 25.8511 30.7593 19.4105 C 32.2275 13.0646 33.9545 8.1018 32.0224 3.504 C 31.08 -0.8481 27.0916 -0.8636 22.2493 -2.3187 C 16.1998 -3.4673 13.0701 -3.453 8.5617 -2.9282 C 4.6515 -2.9102 0 0 0 0" transform="scale(1)" stroke="#1d1d1d" fill="none"/></g><g transform="matrix(1, 0, 0, 1, 912.656, -111.1506)" opacity="1"><path stroke-width="2" d="M 0 0 C 0.2792 0.4078 -3.8257 2.9542 -5.6843 6.5621 C -8.1963 9.8982 -8.9477 12.4545 -9.2956 17.4539 C -9.3842 22.2763 -7.6588 25.8762 -7.7483 30.1103 C -7.0706 33.989 -8.7285 34.4521 -8.6987 37.245 C -9.3136 40.4959 -8.8047 41.7502 -7.4828 43.6187 C -6.3187 45.7805 -5.303 45.8123 -3.1561 46.9652 C -0.8518 48.3511 0.5655 48.8242 2.8217 49.679 C 5.4234 49.6241 6.795 49.1987 8.1765 50.3914 C 9.6714 51.5672 10.1008 53.076 9.912 54.4774 C 9.2573 56.2177 6.9176 57.4402 6.9176 57.4402 M 0 0 C 0.2057 0.5581 -3.8991 3.1045 -5.7578 6.7124 C -7.1727 9.7138 -7.9241 12.2701 -8.272 17.2695 C -9.0483 22.8995 -7.3228 26.4994 -7.4123 30.7335 C -7.1678 34.4465 -8.8256 34.9097 -8.7958 37.7026 C -8.9413 40.5378 -8.4324 41.7921 -7.1105 43.6607 C -6.0182 45.3649 -5.0024 45.3967 -2.8555 46.5496 C -1.4072 48.281 0.0101 48.7541 2.2663 49.6088 C 5.0857 49.3171 6.4573 48.8917 7.8389 50.0844 C 8.6852 52.1007 9.1146 53.6094 8.9257 55.0108 C 9.2573 56.2177 6.9176 57.4402 6.9176 57.4402" transform="scale(1)" stroke="#1d1d1d" fill="none"/></g><g transform="matrix(1, 0, 0, 1, 932.235, -111.744)" opacity="1"><path stroke-width="2" d="M 0 0 C -0.5689 -0.1269 1.733 -0.5563 4.2973 0.8749 C 7.2789 2.8007 9.8909 3.4805 12.157 7.2375 C 14.4792 10.6515 15.1113 14.1103 15.648 19.06 C 16.0618 23.9896 14.3086 26.369 14.6664 30.6329 C 15.0177 35.044 17.1169 36.4633 17.2361 39.6537 C 17.5803 42.6925 15.4573 45.9426 15.4573 45.9426 M 0 0 C -0.666 -0.3187 1.6359 -0.7481 4.2002 0.6832 C 7.6307 1.9864 10.2427 2.6662 12.5088 6.4232 C 14.815 10.0612 15.4471 13.52 15.9838 18.4697 C 15.9558 23.6128 14.2026 25.9922 14.5604 30.2561 C 14.7289 34.9186 16.8281 36.3379 16.9473 39.5284 C 17.5803 42.6925 15.4573 45.9426 15.4573 45.9426" transform="scale(1)" stroke="#1d1d1d" fill="none"/></g><g transform="matrix(1, 0, 0, 1, 945.5699, -55.1848)" opacity="1"><path stroke-width="2" d="M 0 0 C -0.4571 0.3366 -0.6673 -3.3452 -0.1614 -4.9017 C 1.4034 -6.6013 2.0222 -6.5738 3.0301 -7.2775 C 3.9354 -8.122 5.7429 -7.8537 5.6326 -8.5633 C 5.3293 -9.1544 3.4335 -9.251 2.205 -10.7061 C 0.272 -11.9565 -0.0166 -12.8868 -1.1616 -15.2245 C -1.7989 -17.6309 -1.9969 -18.2428 -3.4877 -21.791 C -5.4727 -24.9901 -7.7913 -28.4393 -8.3042 -31.9757 C -7.772 -36.6593 -7.4678 -38.1443 -5.3985 -39.5636 C -3.9896 -40.492 2.0133 -39.4448 2.0133 -39.4448 M 0 0 C -0.3601 0.5302 -0.5702 -3.1516 -0.0643 -4.7081 C 0.4215 -7.0783 1.0403 -7.0509 2.0481 -7.7546 C 2.9173 -8.6863 4.7248 -8.418 4.6145 -9.1276 C 5.2597 -9.8635 3.364 -9.9601 2.1355 -11.4152 C 0.6393 -11.9151 0.3506 -12.8454 -0.7944 -15.1831 C -2.0185 -18.5493 -2.2165 -19.1611 -3.7074 -22.7094 C -4.9121 -25.0762 -7.2307 -28.5254 -7.7436 -32.0618 C -8.1005 -36.3099 -7.7964 -37.7949 -5.7271 -39.2142 C -3.9896 -40.492 2.0133 -39.4448 2.0133 -39.4448" transform="scale(1)" stroke="#1d1d1d" fill="none"/></g><g transform="matrix(1, 0, 0, 1, 904.0227, -89.1346)" opacity="1"><path stroke-width="2" d="M 0 0 C -0.3166 -0.4899 2.1523 -2.2492 4.3588 -2.8753 C 7.0937 -2.9737 8.8848 -3.8523 10.803 -2.9677 C 13.0963 -2.598 13.7841 -1.6279 14.4699 1.3837 C 14.5286 4.6246 14.2602 7.7137 13.8428 11.2024 C 13.6401 14.8527 12.7098 15.3894 12.0538 18.5202 C 11.2233 21.7369 10.7343 26.4778 10.7343 26.4778 M 0 0 C -0.2405 -0.6432 2.2283 -2.4024 4.4348 -3.0286 C 6.7785 -3.1161 8.5695 -3.9947 10.4877 -3.1101 C 12.1095 -1.8517 12.7972 -0.8816 13.483 2.1299 C 14.4853 5.4146 14.2169 8.5037 13.7995 11.9923 C 14.0074 14.8947 13.0771 15.4314 12.4211 18.5623 C 11.2233 21.7369 10.7343 26.4778 10.7343 26.4778" transform="scale(1)" stroke="#1d1d1d" fill="none"/></g><g transform="matrix(0.9995, -0.0316, 0.0316, 0.9995, 942.2524, -92.7714)" opacity="1"><path stroke-width="2" d="M 0 0 C -0.2271 -0.5551 -2.549 0.0569 -2.5224 0.6453 C -2.1482 2.3942 -0.695 3.5769 0.2481 3.4298 C 0.577 3.2187 1.7645 1.6242 1.738 1.0358 C 2.205 -0.0941 0 0 0 0 M 0 0 C -0.2994 -0.4167 -2.6214 0.1953 -2.5948 0.7836 C -2.4996 1.2518 -1.0464 2.4345 -0.1033 2.2874 C 1.4706 2.5491 2.6582 0.9546 2.6316 0.3662 C 2.205 -0.0941 0 0 0 0" transform="scale(1)" stroke="#1d1d1d" fill="none"/></g><g transform="matrix(0.9668, 0.2555, -0.2555, 0.9668, 912.9753, -90.2861)" opacity="1"><path stroke-width="2" d="M 0 0 C 0.1778 -0.4506 -2.1157 0.1362 -2.1744 0.6895 C -2.4476 1.4731 -1.1674 2.2109 -0.3184 2.4354 C 0.5107 2.3616 1.096 2.2344 1.6666 1.6991 C 2.1667 1.2026 2.6889 0.0687 2.3299 -0.3934 C 2.0979 -0.3755 0 0 0 0 M 0 0 C 0.254 -0.6037 -2.0395 -0.0169 -2.0982 0.5364 C -2.1919 1.8602 -0.9118 2.598 -0.0627 2.8225 C 0.7745 2.9601 1.3599 2.8329 1.9305 2.2976 C 2.2348 1.8376 2.7569 0.7037 2.3979 0.2417 C 2.0979 -0.3755 0 0 0 0" transform="scale(1)" stroke="#1d1d1d" fill="none"/></g></svg>