<svg xmlns="http://www.w3.org/2000/svg" direction="ltr" width="125.72324440813156" height="127.52676415264094" viewBox="654.0038650745315 -148.60332967103557 125.72324440813156 127.52676415264094" stroke-linecap="round" stroke-linejoin="round" data-color-mode="dark" class="tl-container tl-theme__force-sRGB tl-theme__dark" style="background-color: transparent;"><defs/><g transform="matrix(1, 0, 0, 1, 686.3385, -79.2379)" opacity="1"><path stroke-width="2" d="M 0 0 C -0.3028 -0.0994 -0.4601 10.6585 -0.1332 15.8555 C 0.733 20.981 -0.6343 22.7285 1.8055 24.7748 C 3.7532 27.145 5.0711 25.7197 11.6249 25.9299 C 18.9355 25.8634 24.8724 25.8098 33.5287 25.8308 C 41.3033 26.4751 47.3347 26.9574 53.0503 26.3773 C 58.9937 25.386 58.6943 25.7286 60.3096 23.2586 C 62.2587 20.62 61.2576 18.9438 61.3655 13.9416 C 61.8393 8.488 61.8791 3.2922 61.527 -1.3722 C 60.1928 -6.1331 60.6074 -6.88 59.0594 -8.9955 C 57.4681 -10.1405 56.0089 -10.0814 53.0709 -10.6525 C 50.8096 -11.7167 49.1177 -11.0355 45.5906 -11.2596 C 42.1271 -11.8723 38.8785 -10.0073 36.8812 -12.6097 C 35.2824 -14.6489 36.762 -18.8156 36.4658 -23.5764 C 35.9872 -27.9 36.9024 -31.6076 35.6755 -34.4613 C 34.6175 -37.9156 32.8526 -37.4168 30.5632 -37.4376 C 27.5189 -37.3709 25.3781 -37.983 24.1003 -35.0745 C 23.3066 -32.035 24.3837 -28.0088 24.1588 -23.258 C 23.1222 -18.0057 23.978 -14.3049 22.6931 -11.638 C 21.6345 -9.617 19.6824 -10.5624 17.4056 -10.6015 C 15.7156 -10.2385 13.8096 -9.3901 12.5778 -12.0694 C 11.3906 -15.1607 12.3294 -18.8556 12.1243 -23.4721 C 11.0952 -27.9745 12.089 -31.7343 10.8138 -34.5264 C 9.709 -36.8541 7.607 -36.3135 5.3499 -36.2957 C 3.394 -36.2142 1.6569 -37.467 0.4512 -33.913 C -1.1182 -30.8238 -0.4204 -26.8208 -0.4998 -19.6375 C -0.2854 -12.5562 0 0 0 0 M 0 0 C -0.2123 -0.2837 -0.3695 10.4743 -0.0426 15.6713 C 0.3813 21.4203 -0.986 23.1678 1.4538 25.214 C 4.0788 26.3801 5.3967 24.9549 11.9505 25.165 C 19.0568 26.4043 24.9937 26.3507 33.65 26.3717 C 41.6811 26.3498 47.7126 26.8321 53.4281 26.252 C 59.2999 24.801 59.0005 25.1436 60.6158 22.6736 C 61.6876 20.5495 60.6866 18.8734 60.7945 13.8711 C 61.503 8.8371 61.5428 3.6414 61.1907 -1.023 C 61.1749 -5.3547 61.5895 -6.1016 60.0414 -8.2171 C 57.3956 -11.1275 55.9364 -11.0684 52.9984 -11.6395 C 50.2914 -11.2814 48.5994 -10.6001 45.0724 -10.8242 C 41.4247 -11.6229 38.176 -9.7579 36.1788 -12.3603 C 34.2462 -14.9049 35.7258 -19.0715 35.4296 -23.8324 C 35.5132 -27.7263 36.4283 -31.4339 35.2014 -34.2876 C 34.0012 -38.23 32.2363 -37.7311 29.9469 -37.752 C 27.037 -37.4594 24.8962 -38.0716 23.6184 -35.163 C 22.6009 -32.5917 23.6781 -28.5655 23.4532 -23.8146 C 23.8447 -18.5967 24.7006 -14.8959 23.4156 -12.229 C 22.1506 -10.2101 20.1985 -11.1554 17.9218 -11.1945 C 15.8109 -10.3201 13.9048 -9.4718 12.673 -12.1511 C 10.3852 -14.5018 11.324 -18.1967 11.1189 -22.8132 C 12.1508 -27.7322 13.1446 -31.492 11.8694 -34.2841 C 9.826 -37.5269 7.724 -36.9863 5.4669 -36.9685 C 3.2037 -36.3892 1.4666 -37.642 0.2609 -34.0879 C -0.9748 -30.3375 -0.2769 -26.3345 -0.3564 -19.1512 C -0.2854 -12.5562 0 0 0 0" transform="scale(1)" stroke="#e8e8e8" fill="none"/></g><g transform="matrix(1, 0, 0, 1, 724.667, -74.3958)" opacity="1"><path stroke-width="2" d="M 0 0 C 0.5681 0.0748 0.9916 -1.6199 1.8081 -2.2811 C 2.0254 -2.7945 2.4119 -2.7501 3.8881 -2.9513 C 5.1938 -3.0706 6.5845 -3.2419 8.1241 -3.0172 C 9.2575 -3.718 9.9203 -3.6731 10.7016 -2.7163 C 11.848 -1.055 11.6714 -0.071 11.8332 1.3545 C 12.3095 2.4764 12.2676 3.1396 12.1581 4.527 C 11.3378 6.2211 11.6062 7.167 10.9113 8.0173 C 11.394 8.3167 10.8902 8.1678 9.2894 8.364 C 6.99 9.0108 5.3443 9.0867 3.7063 8.859 C 2.5519 8.1095 1.9605 8.0953 1.212 7.1998 C -0.1628 6.5744 0.1559 5.9201 -0.0291 4.3086 C 0.0882 2.9623 0 0 0 0 M 0 0 C 0.6664 0.225 1.0899 -1.4697 1.9064 -2.131 C 2.3821 -3.3171 2.7686 -3.2727 4.2447 -3.474 C 5.5351 -3.8042 6.9258 -3.9754 8.4654 -3.7507 C 9.3492 -2.8441 10.012 -2.7992 10.7932 -1.8424 C 11.554 -1.0969 11.3774 -0.1129 11.5392 1.3126 C 12.1652 3.2254 12.1233 3.8886 12.0138 5.2761 C 12.0742 6.1509 12.3426 7.0968 11.6477 7.9471 C 11.0533 8.6349 10.5495 8.4859 8.9486 8.6822 C 7.338 9.5605 5.6923 9.6364 4.0543 9.4087 C 2.2923 9.1277 1.7009 9.1136 0.9524 8.218 C 0.3139 6.968 0.6326 6.3138 0.4476 4.7023 C 0.0882 2.9623 0 0 0 0" transform="scale(1)" stroke="#e8e8e8" fill="none"/></g></svg>