<svg xmlns="http://www.w3.org/2000/svg" direction="ltr" width="139.2511188032749" height="139.8632278388611" viewBox="460.22589019861226 -150.56111627200934 139.2511188032749 139.8632278388611" stroke-linecap="round" stroke-linejoin="round" data-color-mode="light" class="tl-container tl-theme__force-sRGB tl-theme__light" style="background-color: transparent;"><defs/><g transform="matrix(1, 0, 0, 1, 493.6072, -88.0613)" opacity="1"><path fill="#fcfffe" d="M 40.4729 1.8661 L 71.6834 18.3276 Q 73.8698 19.4808 71.6834 20.634 L 40.4729 37.0955 Q 36.9349 38.9616 33.3969 37.0955 L 2.1864 20.634 Q 0 19.4808 2.1864 18.3276 L 33.3969 1.8661 Q 36.9349 0 40.4729 1.8661"/><path stroke-width="2" d="M 41.126 2.2882 L 71.8606 18.1111 Q 74.047 19.2643 71.8606 20.4175 L 40.1322 36.752 Q 36.5942 38.6181 33.0561 36.752 L 1.8296 20.7994 Q -0.3568 19.6462 1.8296 18.493 L 34.0499 2.2882 Q 37.5879 0.4221 41.126 2.2882 M 40.7371 2.417 L 71.938 18.2599 Q 74.1244 19.4131 71.938 20.5663 L 41.1089 37.5259 Q 37.5709 39.392 34.0329 37.5259 L 2.8165 20.0096 Q 0.6301 18.8564 2.8165 17.7032 L 33.661 2.417 Q 37.199 0.5509 40.7371 2.417" fill="none" stroke="#1d1d1d"/></g><g transform="matrix(1, 0, 0, 1, 493.1477, -68.7956)" opacity="1"><path stroke-width="2" d="M 0 0 C 0.1407 -0.2709 -0.1796 1.7092 0.1407 3.0589 C -0.1663 4.3653 -2.2194 3.8082 1.0509 6.1643 C 4.737 8.7246 9.4395 10.9754 15.6266 14.529 C 21.6716 18.5294 26.4988 21.4858 31.0227 23.8725 C 35.5989 26.1566 34.7985 26.2942 37.2514 26.3296 C 39.8285 26.374 38.511 26.2022 42.9733 23.9488 C 46.8098 21.9121 52.1398 19.2146 58.1686 15.7389 C 65.3594 11.3652 69.3754 9.0122 72.4478 6.5842 C 74.7483 4.7612 73.0844 5.2119 73.3062 3.7914 C 73.5181 2.3983 74.1059 0.3606 72.7307 0.3984 C 71.4092 0.699 73.4519 0.6457 66.7493 4.263 C 60.87 7.3294 48.4177 14.6772 41.4353 17.4733 C 34.5071 19.9464 42.6197 20.4702 34.1113 16.8105 C 24.9539 13.5672 0 0 0 0 M 0 0 C 0.0515 -0.0907 -0.2688 1.8894 0.0515 3.2391 C 0.8521 4.9244 -1.201 4.3673 2.0693 6.7234 C 5.0678 9.4868 9.7702 11.7376 15.9573 15.2912 C 21.5543 18.1556 26.3816 21.1119 30.9055 23.4987 C 35.3045 26.1979 34.5041 26.3355 36.9571 26.3709 C 39.9023 25.625 38.5848 25.4533 43.047 23.1998 C 47.593 21.8472 52.923 19.1497 58.9518 15.674 C 65.0186 11.7146 69.0347 9.3616 72.107 6.9336 C 75.0971 4.238 73.4331 4.6887 73.6549 3.2682 C 73.7776 2.0416 74.3654 0.0038 72.9903 0.0416 C 71.891 -0.4125 73.9336 -0.4658 67.231 3.1515 C 60.1662 7.0801 47.7139 14.4279 40.7315 17.224 C 33.4703 20.9043 41.5829 21.4281 33.0745 17.7684 C 24.9539 13.5672 0 0 0 0" transform="scale(1)" stroke="#1d1d1d" fill="none"/></g><g transform="matrix(1, 0, 0, 1, 493.0329, -83.3723)" opacity="1"><path stroke-width="2" d="M 0 0 C 0.1075 0.47 -0.2128 2.4502 0.1075 3.7999 C 0.2812 4.9777 -1.7719 4.4206 1.4983 6.7767 C 5.0721 8.3288 9.7746 10.5796 15.9617 14.1331 C 21.5101 18.8152 26.3374 21.7715 30.8613 24.1583 C 36.2082 25.8101 35.4078 25.9477 37.8607 25.9831 C 40.3349 25.6841 39.0174 25.5123 43.4796 23.2589 C 47.2991 21.3964 52.6291 18.6989 58.6579 15.2232 C 64.9937 11.2699 69.0097 8.9169 72.0821 6.4889 C 75.3181 4.9842 73.6541 5.4349 73.8759 4.0144 C 74.1922 2.4122 74.78 0.3744 73.4048 0.4122 C 72.0509 0.4801 74.0935 0.4268 67.391 4.0441 C 60.5464 7.3198 48.0941 14.6676 41.1118 17.4637 C 34.2296 20.6507 42.3422 21.1745 33.8338 17.5148 C 24.9539 13.5672 0 0 0 0 M 0 0 C 0.0326 0.6631 -0.2877 2.6433 0.0326 3.993 C 0.6378 4.4587 -1.4153 3.9016 1.8549 6.2576 C 4.731 8.8827 9.4335 11.1335 15.6206 14.687 C 21.4658 17.9415 26.2931 20.8978 30.817 23.2845 C 35.9244 25.8515 35.124 25.9891 37.577 26.0245 C 39.3957 26.2664 38.0782 26.0947 42.5404 23.8412 C 47.8531 21.321 53.1831 18.6235 59.2119 15.1479 C 65.3218 11.6184 69.3378 9.2655 72.4101 6.8374 C 75.0013 4.351 73.3373 4.8017 73.5591 3.3812 C 74.431 2.0502 75.0188 0.0124 73.6437 0.0502 C 71.1992 0.2023 73.2418 0.149 66.5392 3.7662 C 59.844 7.0693 47.3917 14.417 40.4094 17.2131 C 33.2657 20.1999 41.3783 20.7238 32.8699 17.064 C 24.9539 13.5672 0 0 0 0" transform="scale(1)" stroke="#1d1d1d" fill="none"/></g><g transform="matrix(1, 0, 0, 1, 493.1477, -103.0796)" opacity="1"><path fill="#fcfffe" d="M 40.4729 1.8661 L 71.6834 18.3276 Q 73.8698 19.4808 71.6834 20.634 L 40.4729 37.0955 Q 36.9349 38.9616 33.3969 37.0955 L 2.1864 20.634 Q 0 19.4808 2.1864 18.3276 L 33.3969 1.8661 Q 36.9349 0 40.4729 1.8661"/><path stroke-width="2" d="M 40.4289 1.8896 L 71.3143 18.02 Q 73.5007 19.1732 71.3143 20.3264 L 41.1214 37.5556 Q 37.5834 39.4217 34.0453 37.5556 L 2.1515 21.012 Q -0.035 19.8588 2.1515 18.7056 L 33.3528 1.8896 Q 36.8908 0.0235 40.4289 1.8896 M 40.0998 2.18 L 71.2447 18.1688 Q 73.4311 19.322 71.2447 20.4752 L 40.0981 36.7049 Q 36.5601 38.571 33.022 36.7049 L 2.4927 20.4637 Q 0.3063 19.3105 2.4927 18.1573 L 33.0237 2.18 Q 36.5618 0.3139 40.0998 2.18" fill="none" stroke="#1d1d1d"/></g><g transform="matrix(1, 0, 0, 1, 492.6783, -118.5611)" opacity="1"><path fill="#fcfffe" d="M 40.4729 1.8661 L 71.6834 18.3276 Q 73.8698 19.4808 71.6834 20.634 L 40.4729 37.0955 Q 36.9349 38.9616 33.3969 37.0955 L 2.1864 20.634 Q 0 19.4808 2.1864 18.3276 L 33.3969 1.8661 Q 36.9349 0 40.4729 1.8661"/><path stroke-width="2" d="M 40.8582 2.2826 L 71.5231 18.1071 Q 73.7095 19.2603 71.5231 20.4135 L 40.8705 36.8167 Q 37.3324 38.6828 33.7944 36.8167 L 2.122 21.1643 Q -0.0644 20.0111 2.122 18.8579 L 33.7822 2.2826 Q 37.3202 0.4165 40.8582 2.2826 M 40.5052 2.4871 L 71.6202 18.2483 Q 73.8066 19.4015 71.6202 20.5547 L 39.8524 37.298 Q 36.3144 39.164 32.7763 37.298 L 2.4372 20.5612 Q 0.2507 19.4081 2.4372 18.2549 L 33.4291 2.4871 Q 36.9671 0.621 40.5052 2.4871" fill="none" stroke="#1d1d1d"/></g><g transform="matrix(1, 0, 0, 1, 492.5634, -98.8538)" opacity="1"><path stroke-width="2" d="M 0 0 C 0.3671 -0.6158 0.0468 1.3644 0.3671 2.7141 C -0.2325 5.2321 -2.2856 4.675 0.9847 7.031 C 4.783 9.27 9.4855 11.5208 15.6726 15.0744 C 22.0839 18.0511 26.9112 21.0075 31.4351 23.3942 C 35.8837 25.4594 35.0833 25.597 37.5362 25.6323 C 39.6968 25.9275 38.3793 25.7557 42.8416 23.5023 C 47.9813 21.1202 53.3113 18.4227 59.3401 14.947 C 64.3903 12.3982 68.4063 10.0452 71.4787 7.6172 C 75.6514 4.5861 73.9874 5.0368 74.2093 3.6163 C 74.3596 2.0993 74.9474 0.0615 73.5723 0.0993 C 71.4453 -0.3409 73.488 -0.3943 66.7854 3.223 C 60.9308 7.1048 48.4785 14.4526 41.4961 17.2487 C 33.3628 20.5049 41.4755 21.0287 32.967 17.369 C 24.9539 13.5672 0 0 0 0 M 0 0 C 0.4407 -0.434 0.1204 1.5461 0.4407 2.8958 C 0.7439 4.048 -1.3092 3.4909 1.9611 5.8469 C 5.1035 8.5235 9.8059 10.7743 15.9931 14.3278 C 22.1447 18.6743 26.9719 21.6306 31.4958 24.0174 C 36.2509 25.5848 35.4505 25.7223 37.9034 25.7577 C 40.0337 26.6793 38.7162 26.5075 43.1784 24.2541 C 47.4208 21.2216 52.7508 18.5241 58.7796 15.0484 C 64.7169 12.0904 68.7329 9.7374 71.8053 7.3094 C 74.6679 5.1242 73.004 5.5748 73.2258 4.1544 C 74.2642 2.4456 74.852 0.4079 73.4769 0.4456 C 71.9688 0.6042 74.0114 0.5508 67.3089 4.1681 C 60.1332 6.8542 47.6809 14.202 40.6986 16.9981 C 34.41 20.0958 42.5226 20.6196 34.0142 16.9599 C 24.9539 13.5672 0 0 0 0" transform="scale(1)" stroke="#1d1d1d" fill="none"/></g><g transform="matrix(1, 0, 0, 1, 505.8973, -103.7789)" opacity="1"><path fill="#fcfffe" d="M 0 4.5038 C 0 2.0164 3.5698 0 7.9733 0 C 12.3768 0 15.9466 2.0164 15.9466 4.5038 C 15.9466 6.9911 12.3768 9.0075 7.9733 9.0075 C 3.5698 9.0075 0 6.9911 0 4.5038"/><path stroke-width="2" d="M 0.2371 5.1077 C -0.3691 2.2194 3.2007 0.2029 7.6042 0.2029 C 12.4846 -0.3033 16.0544 1.7132 16.0544 4.2005 C 16.4766 6.9571 12.9068 8.9735 8.5033 8.9735 C 3.8068 9.6115 0.2371 7.5951 0.2371 5.1077 M 0.5122 4.8955 C -0.4387 2.0352 3.131 0.0187 7.5346 0.0187 C 12.128 0.2158 15.6978 2.2322 15.6978 4.7196 C 15.4792 7.5676 11.9094 9.584 7.5059 9.584 C 4.0819 9.3993 0.5122 7.3829 0.5122 4.8955" fill="none" stroke="#1d1d1d"/></g><g transform="matrix(1, 0, 0, 1, 520.6411, -90.1219)" opacity="1"><path stroke-width="2" d="M 0 0 L 7.5756 3.3439 Q 10.1351 4.4399 11.0223 2.3612 L 12.3111 -1.7832 Q 13.1984 -3.8619 11.0198 -3.2408 L 0 0 M 0 0 L 7.6116 3.4153 Q 10.1711 4.5113 11.0584 2.4326 L 13.293 -2.0106 Q 14.1803 -4.0893 12.0017 -3.4682 L 0 0" transform="scale(1)" stroke="#1d1d1d" fill="none"/></g><g transform="matrix(1, 0, 0, 1, 525.6954, -112.6132)" opacity="1"><path stroke-width="2" d="M 0 0 L 0.9527 2.6958 Q 1.2703 3.5944 0.3395 4.2959 L -1.4878 5.5364 Q -2.4186 6.2379 -1.2851 6.3765 L 0.9477 6.8163 Q 2.0812 6.9549 2.7163 7.9054 L 3.9377 9.7941 Q 4.5729 10.7447 4.7384 9.6274 L 5.1184 7.4052 Q 5.284 6.288 6.6793 6.0303 L 10.0084 5.9096 Q 11.4037 5.652 10.2111 5.1799 L 7.2874 3.8412 Q 6.0948 3.3692 6.4631 2.3103 L 7.1399 0.2896 Q 7.5081 -0.7693 6.503 -0.1803 L 4.5525 0.9008 Q 3.5474 1.4897 2.6606 1.1173 L 0 0 M 0 0 L 0.9527 2.6958 Q 1.2703 3.5944 0.3395 4.2959 L -1.5657 5.8395 Q -2.4964 6.5411 -1.3629 6.6797 L 0.9477 6.8163 Q 2.0812 6.9549 2.7163 7.9054 L 3.9038 9.9265 Q 4.539 10.877 4.7045 9.7597 L 5.1184 7.4052 Q 5.284 6.288 6.6793 6.0303 L 8.9311 5.4114 Q 10.3264 5.1537 9.1338 4.6817 L 7.2874 3.8412 Q 6.0948 3.3692 6.4631 2.3103 L 7.0277 0.3918 Q 7.396 -0.667 6.3909 -0.078 L 4.5525 0.9008 Q 3.5474 1.4897 2.6606 1.1173 L 0 0" transform="scale(1)" stroke="#1d1d1d" fill="none"/></g><g transform="matrix(1, 0, 0, 1, 546.6245, -104.148)" opacity="1"><path stroke-width="2" d="M 0 0 L 6.4089 3.1619 Q 8.5203 4.2445 6.3921 5.2937 L 2.0727 7.4647 Q -0.1672 8.569 -2.2349 7.4647 L -6.2561 5.7205 Q -8.3237 4.6162 -6.1699 3.5119 L 0 0 L 0 0 M 0 0 L 6.4995 3.3123 Q 8.611 4.3949 6.4827 5.4441 L 1.566 8.0362 Q -0.674 9.1405 -2.7416 8.0362 L -6.6077 5.1146 Q -8.6754 4.0103 -6.5216 2.906 L 0 0 L 0 0" transform="scale(1)" stroke="#1d1d1d" fill="none"/></g><g transform="matrix(1, 0, 0, 1, 545.7384, -104.4146)" opacity="1"><path stroke-width="2" d="M 0 0 L 0.1767 8.8343 M 0 0 L 0.1767 8.8343" transform="scale(1)" stroke="#1d1d1d" fill="none"/></g></svg>
