<svg xmlns="http://www.w3.org/2000/svg" direction="ltr" width="131.0112827580149" height="175.73510590830693" viewBox="517.5213444718871 -363.8636358418717 131.0112827580149 175.73510590830693" stroke-linecap="round" stroke-linejoin="round" data-color-mode="light" class="tl-container tl-theme__force-sRGB tl-theme__light" style="background-color: transparent;"><defs/><g transform="matrix(1, 0, 0, 1, 564.7744, -331.8636)" opacity="1"><path stroke-width="3.5" d="M 0 14.4813 C 0 6.4835 7.572 0 16.9126 0 C 26.2532 0 33.8252 6.4835 33.8252 14.4813 C 33.8252 22.4791 26.2532 28.9626 16.9126 28.9626 C 7.572 28.9626 0 22.4791 0 14.4813" fill="none" stroke="#1d1d1d"/></g><g transform="matrix(1, 0, 0, 1, 582.1266, -303.2077)" opacity="1"><path stroke-width="3.5" d="M 0 0 C 0 0 1.7718 57.8364 1.7718 57.8364" transform="scale(1)" stroke="#1d1d1d" fill="none"/></g><g transform="matrix(1, 0, 0, 1, 549.5213, -283.9441)" opacity="1"><path stroke-width="3.5" d="M 0 0 C 0 0 67.0113 -1.0489 67.0113 -1.0489" transform="scale(1)" stroke="#1d1d1d" fill="none"/></g><g transform="matrix(1, 0, 0, 1, 555.5264, -220.1285)" opacity="1"><path stroke-width="3.5" d="M 0 0 C 0 0 27.0367 -25.2555 27.0367 -25.2555" transform="scale(1)" stroke="#1d1d1d" fill="none"/></g><g transform="matrix(1, 0, 0, 1, 584.1978, -245.7251)" opacity="1"><path stroke-width="3.5" d="M 0 0 C 0 0 24.7073 23.3024 24.7073 23.3024" transform="scale(1)" stroke="#1d1d1d" fill="none"/></g></svg>