<svg xmlns="http://www.w3.org/2000/svg" direction="ltr" width="162.9833669354838" height="162.21295362903197" viewBox="225.31490326471203 -168.21048561111002 162.9833669354838 162.21295362903197" stroke-linecap="round" stroke-linejoin="round" data-color-mode="dark" class="tl-container tl-theme__force-sRGB tl-theme__dark" style="background-color: transparent;"><defs/><g transform="matrix(1, 0, 0, 1, 268.6723, -128.746)" opacity="1"><path stroke-width="3.5" d="M 0.5249 39.1304 C -1.0211 17.691 18.5946 -0.1186 42.7919 -0.1186 C 69.1453 0.2771 88.7611 18.0867 88.7611 40.056 C 87.9955 62.2314 68.3797 80.041 44.1824 80.041 C 20.1407 78.9093 0.5249 61.0997 0.5249 39.1304 M 1.0779 38.6131 C -0.9018 17.4412 18.714 -0.3684 42.9113 -0.3684 C 67.354 -0.1202 86.9698 17.6894 86.9698 39.6586 C 87.4351 60.8992 67.8194 78.7088 43.6221 78.7088 C 20.6937 78.3919 1.0779 60.5823 1.0779 38.6131" fill="none" stroke="#e8e8e8"/></g><g transform="matrix(1, 0, 0, 1, 257.3149, -136.2105)" opacity="1"><path stroke-width="3.5" d="M 0 0 L 2.8347 98.213 M 0 0 L 2.8347 98.213" transform="scale(1)" stroke="#e8e8e8" fill="none"/></g><g transform="matrix(1, 0, 0, 1, 259.115, -89.6389)" opacity="1"><path stroke-width="3.5" d="M 0 0 L 10.2878 -0.1213 M 0 0 L 10.2878 -0.1213" transform="scale(1)" stroke="#e8e8e8" fill="none"/></g></svg>