<svg xmlns="http://www.w3.org/2000/svg" direction="ltr" width="151.6260080645161" height="153.34522852882242" viewBox="307.5414566532258 153.07828457601624 151.6260080645161 153.34522852882242" stroke-linecap="round" stroke-linejoin="round" data-color-mode="light" class="tl-container tl-theme__force-sRGB tl-theme__light" style="background-color: transparent;"><defs/><g transform="matrix(1, 0, 0, 1, 339.5415, 194.8658)" opacity="1"><path stroke-width="3.5" d="M 0.3734 40.7142 C -0.6447 17.8761 18.9711 0.0665 43.1683 0.0665 C 67.8509 1.0283 87.4666 18.8379 87.4666 40.8072 C 87.466 61.0743 67.8502 78.8839 43.653 78.8839 C 19.9892 80.4931 0.3734 62.6835 0.3734 40.7142 M 0.9404 40.6389 C -0.7689 18.1208 18.8468 0.3112 43.0441 0.3112 C 68.3935 -0.9071 88.0092 16.9025 88.0092 38.8717 C 88.045 62.0561 68.4292 79.8657 44.232 79.8657 C 20.5562 80.4178 0.9404 62.6082 0.9404 40.6389" fill="none" stroke="#1d1d1d"/></g><g transform="matrix(1, 0, 0, 1, 359.1524, 198.911)" opacity="1"><path stroke-width="3.5" d="M 0 0 L 17.5463 -13.8328 M 0 0 L 17.5463 -13.8328" transform="scale(1)" stroke="#1d1d1d" fill="none"/></g><g transform="matrix(1, 0, 0, 1, 357.7622, 199.0907)" opacity="1"><path stroke-width="3.5" d="M 0 0 L 18.098 7.985 M 0 0 L 18.098 7.985" transform="scale(1)" stroke="#1d1d1d" fill="none"/></g></svg>