<svg xmlns="http://www.w3.org/2000/svg" direction="ltr" width="171.31786583065502" height="159.29108750930908" viewBox="451.2595308111444 -38.7764120563769 171.31786583065502 159.29108750930908" stroke-linecap="round" stroke-linejoin="round" data-color-mode="light" class="tl-container tl-theme__force-sRGB tl-theme__light" style="background-color: transparent;"><defs/><g transform="matrix(1, 0, 0, 1, 485.8158, -6.7764)" opacity="1"><path stroke-width="3.5" d="M -0.6382 47.2313 C 0.0035 20.8177 22.1377 -0.4927 49.4416 -0.4927 C 75.9923 -0.9825 98.1264 20.3279 98.1264 46.6157 C 97.7276 73.4416 75.5934 94.752 48.2895 94.752 C 21.496 94.8295 -0.6382 73.519 -0.6382 47.2313 M -0.0895 47.4478 C 0.1688 21.1338 22.303 -0.1766 49.6069 -0.1766 C 77.7016 1.0993 99.8357 22.4098 99.8357 48.6975 C 99.4821 74.6963 77.3479 96.0067 50.044 96.0067 C 22.0447 95.046 -0.0895 73.7356 -0.0895 47.4478" fill="none" stroke="#1d1d1d"/></g><g transform="matrix(1, 0, 0, 1, 483.2595, 88.5147)" opacity="1"><path stroke-width="3.5" d="M 0 0 L 107.3179 -0.3608 M 0 0 L 107.3179 -0.3608" transform="scale(1)" stroke="#1d1d1d" fill="none"/></g></svg>