<svg xmlns="http://www.w3.org/2000/svg" direction="ltr" width="278.0638557476366" height="160.40990923281123" viewBox="701.9600197256351 -119.22109581837736 278.0638557476366 160.40990923281123" stroke-linecap="round" stroke-linejoin="round" data-color-mode="light" class="tl-container tl-theme__force-sRGB tl-theme__light" style="background-color: transparent;"><defs/><g transform="matrix(1, 0, 0, 1, 733.96, -87.2211)" opacity="1"><path stroke-width="3.5" d="M 0.557 47.8001 C -0.4774 20.9275 47.4425 -0.6546 106.5546 -0.6546 C 166.9648 0.2154 214.8847 21.7975 214.8847 48.4203 C 213.7567 74.9876 165.8369 96.5697 106.7248 96.5697 C 48.4768 96.005 0.557 74.4229 0.557 47.8001 M 1.0464 48.0165 C -0.3529 20.6821 47.5669 -0.9 106.679 -0.9 C 165.2556 -0.0452 213.1754 21.5369 213.1754 48.1597 C 214.3354 73.7192 166.4156 95.3013 107.3035 95.3013 C 48.9662 96.2214 1.0464 74.6393 1.0464 48.0165" fill="none" stroke="#1d1d1d"/></g></svg>